<?xml version="1.0" standalone="no"?>
<!DOCTYPE svg PUBLIC "-//W3C//DTD SVG 1.1//EN" "http://www.w3.org/Graphics/SVG/1.1/DTD/svg11.dtd" >
<svg xmlns="http://www.w3.org/2000/svg">
<metadata></metadata>
<defs>
<font id="pf_din_text_cond_proXBlkIt" horiz-adv-x="1085" >
<font-face units-per-em="2048" ascent="1536" descent="-512" />
<missing-glyph horiz-adv-x="540" />
<glyph unicode="&#xfb01;" horiz-adv-x="1193" d="M47 -317l197 1067h-101l50 266h100l24 129q35 186 166 284.5t326 98.5q45 0 97 -5t103.5 -18.5t98.5 -40t86 -69.5q-47 -63 -93 -126t-93 -126q-37 35 -78 52t-107 17q-43 0 -70.5 -13t-46 -34.5t-28.5 -48t-14 -51.5l-11 -49h576l-187 -1016h-360l137 750h-215 l-196 -1067h-361z" />
<glyph unicode="&#xfb02;" horiz-adv-x="1243" d="M41 -317l197 1069h-95l52 266h92l24 127q18 94 63.5 166.5t112 121t153.5 73t187 24.5q31 0 80 -3t112.5 -11.5t139.5 -25.5t158 -44l-199 -1053q-8 -41 13.5 -63.5t76.5 -30.5l-55 -303h-59q-78 0 -141.5 14.5t-109.5 45t-72 81.5t-26 125q0 23 3.5 47.5l7.5 52.5 l155 836q-18 8 -46.5 11t-57.5 3q-39 0 -65.5 -13t-43 -31.5t-25.5 -40t-11 -35.5l-17 -74h162l-51 -266h-160l-197 -1069h-358z" />
<glyph horiz-adv-x="0" />
<glyph horiz-adv-x="682" />
<glyph unicode=" "  horiz-adv-x="540" />
<glyph unicode="&#x09;" horiz-adv-x="540" />
<glyph unicode="&#xa0;" horiz-adv-x="540" />
<glyph unicode="!" horiz-adv-x="663" d="M111 0l57 313h362l-55 -313h-364zM209 426l160 999h370l-207 -999h-323z" />
<glyph unicode="&#x22;" horiz-adv-x="784" d="M217 911l94 514h258l-94 -514h-258zM559 911l94 514h262l-94 -514h-262z" />
<glyph unicode="#" horiz-adv-x="1155" d="M92 0l144 418h-142l39 215h174l60 168h-146l41 219h180l138 405h262l-137 -405h143l139 405h264l-137 -405h156l-41 -219h-191l-59 -168h158l-39 -215h-191l-141 -418h-266l141 418h-141l-142 -418h-266zM571 633h144l59 168h-143z" />
<glyph unicode="$" d="M72 250l278 217q78 -156 205 -156q80 0 115 42t35 96q0 47 -41 75.5t-127 65.5q-137 59 -222.5 159.5t-85.5 237.5q0 104 36 185t98.5 138.5t146.5 90.5t182 37l33 186h133l-33 -188q115 -10 207 -68.5t137 -132.5l-251 -244q-41 70 -94.5 96.5t-102.5 26.5 q-47 0 -80 -29.5t-33 -76.5q0 -37 41 -65t127 -64q168 -72 235.5 -162t67.5 -215q0 -106 -33.5 -196.5t-97 -157t-155 -106.5t-203.5 -48l-35 -191h-133l35 197q-141 10 -236.5 78.5t-148.5 171.5z" />
<glyph unicode="%" horiz-adv-x="1767" d="M223 856l64 350q23 117 100.5 189.5t220.5 72.5q68 0 123 -22.5t92 -61t52.5 -92t3.5 -116.5l-64 -353q-10 -57 -32.5 -105t-60.5 -83t-93.5 -54.5t-128.5 -19.5q-68 0 -124.5 21.5t-94 59.5t-54 92t-4.5 122zM342 -35l1016 1495h262l-1016 -1495h-262zM475 819 q-6 -43 33 -43q33 0 43 43l72 389q8 45 -29 45q-39 0 -45 -45zM1094 283l63 350q23 117 100.5 189.5t221.5 72.5q68 0 123 -22.5t92 -61.5t52 -92t3 -117l-63 -352q-10 -57 -33 -105.5t-61 -83t-93 -54t-129 -19.5q-68 0 -124 21.5t-94 59t-54.5 92t-3.5 122.5zM1346 246 q-6 -43 32 -43q33 0 43 43l72 389q8 45 -29 45q-39 0 -45 -45z" />
<glyph unicode="&#x26;" horiz-adv-x="1275" d="M125 303q0 139 70.5 264t230.5 224q-29 43 -48.5 108.5t-19.5 136.5q0 92 32 167t91.5 126t143.5 79t188 28q39 0 91 -5.5t105.5 -26t103.5 -58t85 -103.5l-225 -199q-51 63 -92 78t-68 15q-49 0 -78.5 -33t-29.5 -78q0 -31 21.5 -82t50 -108.5t60 -114.5t54.5 -100 q16 31 29.5 59.5t27.5 69.5l283 -74q-31 -86 -82 -184.5t-109 -176.5q39 -76 81 -158.5t83 -156.5h-391l-41 82q-68 -47 -147.5 -70.5t-159.5 -23.5q-94 0 -159.5 24.5t-105.5 67.5t-57.5 100.5t-17.5 122.5zM469 362q0 -76 74 -75q27 0 54.5 10t59.5 33l-106 207 q-27 -25 -54.5 -72t-27.5 -103z" />
<glyph unicode="'" horiz-adv-x="462" d="M227 911l95 514h260l-95 -514h-260z" />
<glyph unicode="(" horiz-adv-x="763" d="M182 434q0 152 43 303.5t117 294t173 271.5t212 237l205 -137q-199 -248 -297 -493.5t-98 -518.5q0 -141 26.5 -277.5t79.5 -254.5l-242 -152q-98 160 -158.5 344.5t-60.5 382.5z" />
<glyph unicode=")" horiz-adv-x="763" d="M51 -141q186 233 292 488t106 521q0 135 -27 272.5t-86 262.5l254 131q94 -154 150.5 -336t56.5 -383q0 -160 -43 -308.5t-119 -286.5t-177.5 -265t-217.5 -246z" />
<glyph unicode="*" horiz-adv-x="935" d="M236 1047l114 231l185 -84q0 12 3 44t6 65.5t5 65.5t4 44h278l-63 -219q14 6 45 17.5t64.5 24.5t62.5 25.5t39 16.5l35 -231l-232 -56l115 -178l-244 -158l-69 181q-10 -10 -31 -37t-43.5 -55.5t-41.5 -54t-28 -36.5l-182 158l182 178q-12 2 -41.5 11.5t-62.5 18.5 t-60.5 17t-39.5 11z" />
<glyph unicode="+" d="M119 492l51 280h324l59 320h297l-59 -320h321l-51 -280h-324l-59 -326h-297l59 326h-321z" />
<glyph unicode="," horiz-adv-x="616" d="M20 -334l132 330h-72l63 356h381l-63 -336l-219 -350h-222z" />
<glyph unicode="-" horiz-adv-x="878" d="M133 389l55 301h691l-56 -301h-690z" />
<glyph unicode="." horiz-adv-x="608" d="M74 0l63 352h379l-63 -352h-379z" />
<glyph unicode="/" horiz-adv-x="747" d="M-53 -84l727 1569h303l-731 -1569h-299z" />
<glyph unicode="0" d="M160 432l110 598q16 90 55.5 165t98.5 128t140 83t184 30q98 0 175.5 -32t129 -89.5t72 -138t1.5 -181.5l-110 -602q-16 -90 -51 -163.5t-91.5 -127t-137.5 -83t-189 -29.5q-98 0 -177 31.5t-131.5 90t-75 139.5t-3.5 181zM512 393q-10 -49 9.5 -70.5t53.5 -21.5 q61 0 80 92l117 635q10 49 -7 72.5t-50 23.5q-66 0 -84 -96z" />
<glyph unicode="1" d="M379 893l65 356l267 176h319l-262 -1425h-360l192 1038z" />
<glyph unicode="2" d="M80 0l47 254l561 639q31 37 49.5 80t20.5 90q0 27 -14.5 43t-43.5 16q-35 0 -61.5 -31.5t-48.5 -121.5l-336 51q55 211 189.5 313.5t306.5 102.5q174 0 274 -80t100 -234q0 -92 -37.5 -189t-123.5 -196l-388 -440h394l-54 -297h-835z" />
<glyph unicode="3" d="M102 387l369 43q-4 -16 -4 -28.5v-22.5q0 -53 22.5 -66.5t45.5 -13.5q39 0 72.5 43t33.5 154q0 55 -20.5 80.5t-69.5 25.5h-105l50 262h110q68 0 103.5 54.5t35.5 134.5q0 29 -14 47t-43 18q-12 0 -25.5 -4t-29 -17.5t-30.5 -41t-30 -76.5l-327 76q43 203 170 293t301 90 q102 0 178 -27t126 -71t74.5 -101t24.5 -121q0 -35 -7 -86t-28.5 -105.5t-61.5 -104.5t-108 -81q0 -2 -1 -3t-1 -3q61 -35 85 -89t24 -114q0 -117 -30.5 -216t-94 -171.5t-158 -113.5t-219.5 -41q-92 0 -172 21.5t-138 68.5t-88 123t-20 184z" />
<glyph unicode="4" d="M51 197l47 245l547 983h344l-516 -933h166l53 294h352l-53 -294h90l-55 -295h-90l-35 -197h-352l35 197h-533z" />
<glyph unicode="5" d="M129 332v25.5t2 27.5l371 53q-8 -31 -8 -49q0 -33 9 -51.5t20.5 -26.5t20.5 -10t11 -2q29 0 50.5 16.5t35.5 44t23.5 60.5t15.5 67l6 48t2 63t-15.5 54.5t-43.5 23.5q-14 0 -41 -8.5t-56 -55.5h-307q39 205 76 407t74 406h799l-54 -295h-450q-10 -45 -17.5 -88t-15.5 -88 q35 14 72.5 21.5t66.5 7.5q82 0 137.5 -20.5t89 -57.5t49 -87t15.5 -111q0 -350 -135 -533.5t-408 -183.5q-80 0 -152.5 20.5t-125.5 61.5t-85 105.5t-32 154.5z" />
<glyph unicode="6" d="M154 332q0 45 6 88q8 57 21.5 101t36 92.5t61 110.5t100.5 159l346 542h379q-92 -143 -182.5 -283.5t-180.5 -283.5q8 2 29 2q55 0 104.5 -12t86 -45t57 -87t20.5 -141q0 -127 -33.5 -234.5t-98 -185t-161 -121.5t-219.5 -44q-102 0 -172.5 27.5t-114.5 73.5t-64.5 108.5 t-20.5 132.5zM516 373q0 -33 12.5 -52.5t40.5 -19.5q51 0 79 60.5t28 146.5q0 35 -12 56.5t-41 21.5q-47 0 -77 -63.5t-30 -149.5z" />
<glyph unicode="7" d="M143 0l613 1130h-148l-30 -163h-322l84 458h846l-49 -268l-637 -1157h-357z" />
<glyph unicode="8" d="M129 315q0 27 7 84.5t29.5 122t68 125t118.5 94.5q0 2 1 2t1 2q-55 31 -74.5 87.5t-19.5 117.5q0 104 36 193.5t101.5 154t157.5 101.5t203 37q94 0 164.5 -23.5t116.5 -65.5t70 -99.5t24 -127.5q0 -37 -9.5 -89t-32 -105.5t-62.5 -101.5t-103 -76v-5q59 -31 85.5 -87 t26.5 -128q0 -123 -38.5 -223t-107.5 -169.5t-165 -107.5t-213 -38q-186 0 -285.5 86t-99.5 239zM494 360q0 -35 20.5 -51t48.5 -16q31 0 53.5 23.5t38 59.5t22.5 79t7 84q-7 69 -66 69q-29 0 -52 -22.5t-39.5 -57t-24.5 -80t-8 -88.5zM612 944q0 -70 58 -70q41 0 68.5 51.5 t33.5 123.5q0 41 -11 63.5t-46 22.5q-47 0 -75 -57.5t-28 -133.5z" />
<glyph unicode="9" d="M180 0q92 143 182.5 283.5t180.5 283.5q-8 -2 -29 -2q-55 0 -104.5 12.5t-86 45t-57 87t-20.5 140.5q0 127 33.5 234.5t98 185.5t161 122t219.5 44q100 0 171.5 -28t116 -74t64.5 -108.5t20 -131.5q0 -45 -6 -88q-10 -59 -22 -102.5t-35 -91.5t-61.5 -110.5 t-100.5 -158.5l-346 -543h-379zM608 918q0 -35 12.5 -56.5t41.5 -21.5q47 0 76.5 63.5t29.5 149.5q0 33 -12.5 52t-40.5 19q-51 0 -79 -60t-28 -146z" />
<glyph unicode=":" horiz-adv-x="618" d="M82 0l63 352h379l-63 -352h-379zM184 567l64 353h379l-64 -353h-379z" />
<glyph unicode=";" horiz-adv-x="618" d="M20 -334l132 330h-72l65 356h379l-61 -336l-221 -350h-222zM184 567l64 353h379l-64 -353h-379z" />
<glyph unicode="&#x3c;" d="M111 500l47 254l1028 434l-60 -346l-589 -240l497 -235l-59 -304z" />
<glyph unicode="=" d="M92 281l49 272h918l-51 -272h-916zM164 678l51 270h918l-52 -270h-917z" />
<glyph unicode="&#x3e;" d="M35 63l59 345l586 237l-500 240l60 303l868 -434l-49 -254z" />
<glyph unicode="?" horiz-adv-x="1042" d="M217 1008q61 215 191.5 321.5t322.5 106.5q188 0 287.5 -82t99.5 -236q0 -61 -16.5 -113.5t-42 -96.5t-59 -82t-66.5 -74q-47 -55 -78 -94.5t-52.5 -72t-32.5 -62t-17 -66.5l-9 -45h-352l17 92q6 35 17 67.5t29.5 66.5t48.5 72t73 85q43 51 71.5 88t46 67.5t24.5 57 t7 57.5q0 57 -51 57q-33 0 -63.5 -31.5t-55.5 -121.5zM315 0l56 313h358l-55 -313h-359z" />
<glyph unicode="@" horiz-adv-x="1822" d="M184 506q0 233 75 425.5t205 329t308 211t385 74.5q162 0 287 -46t209 -129t127 -198.5t43 -257.5q0 -154 -41 -279.5t-113 -214.5t-169 -138.5t-210 -49.5q-115 0 -174 46.5t-74 105.5q-43 -61 -108.5 -98t-128.5 -37q-76 0 -121 23.5t-67.5 57.5t-29.5 72.5t-7 71.5 q0 88 14 179t33 159q41 154 117.5 237t197.5 83q14 0 38 -3.5t48.5 -12.5t47 -26.5t38.5 -43.5h8l15 69h288l-100 -514q-8 -41 1 -81t52 -40q51 0 89 40t63.5 101.5t38 136.5t12.5 142q0 96 -31.5 174t-90 132.5t-141.5 84t-188 29.5q-162 0 -291.5 -67.5t-221 -179 t-140.5 -255t-49 -295.5q0 -223 118 -349t343 -126q129 0 239.5 23.5t227.5 70.5l57 -209q-141 -57 -269 -81.5t-265 -24.5q-158 0 -287 42t-219 127t-139.5 212t-49.5 297zM895 588q-2 -27 6 -52.5t41 -25.5q16 0 25.5 7t19.5 18q18 18 32.5 64t31.5 124q4 29 7 50.5 t3 45.5q0 62 -49 62q-23 0 -41 -23q-35 -37 -56 -143q-8 -33 -12 -65t-8 -62z" />
<glyph unicode="A" horiz-adv-x="1236" d="M-25 0l654 1425h422l127 -1425h-383l-11 252h-319l-98 -252h-392zM592 559h178l-2 166v262h-12l-103 -268z" />
<glyph unicode="B" horiz-adv-x="1167" d="M59 0l263 1425h518q193 0 285 -85t92 -244q-2 -41 -13.5 -93.5t-37 -102.5t-69.5 -94t-112 -67q0 -2 -1 -4t-1 -4q84 -33 113.5 -99.5t29.5 -139.5q0 -143 -49 -237.5t-130 -151t-187.5 -80t-222.5 -23.5h-478zM489 309h86q76 0 123 52.5t47 127.5q0 100 -106 101h-98 q-12 -72 -24.5 -140.5t-27.5 -140.5zM596 885h80q63 0 107 32.5t44 102.5q0 96 -102 96h-86z" />
<glyph unicode="C" horiz-adv-x="1110" d="M135 371q0 39 4 77.5t13 79.5l61 334q12 59 26.5 117.5t32.5 116.5q25 76 65 140t98.5 109.5t136.5 71t180 25.5q111 0 191.5 -30t133.5 -82t80 -123.5t29 -155.5l-348 -88v14q0 78 -28 109.5t-69 31.5q-47 0 -73.5 -25.5t-42.5 -62.5q-8 -25 -15.5 -51.5t-11.5 -54.5 q-23 -123 -44.5 -241t-43.5 -241q-2 -10 -3 -19t-1 -20q0 -41 22.5 -67.5t75.5 -26.5q45 0 81 36t63 122l362 -84q-51 -186 -181 -290.5t-341 -104.5q-45 0 -76 8q-180 16 -278.5 115.5t-98.5 259.5z" />
<glyph unicode="D" horiz-adv-x="1175" d="M61 0l263 1425h512q74 0 137 -11t112.5 -36.5t81 -69.5t41.5 -112q4 -26 4 -64v-26q-2 -55 -7 -120.5t-14 -134.5t-17 -126q-27 -162 -51.5 -280.5t-69.5 -196.5q-39 -68 -92.5 -116t-118 -76.5t-135 -42t-142.5 -13.5h-504zM492 313h45q70 0 120 21.5t76 85.5 q23 51 38 120.5t30 149.5q6 37 13 79t13.5 83t10.5 79t4 68q0 57 -28 84t-97 27h-78z" />
<glyph unicode="E" horiz-adv-x="1062" d="M59 0l263 1425h872l-59 -319h-494l-41 -219h434l-59 -320h-434l-45 -245h516l-58 -322h-895z" />
<glyph unicode="F" horiz-adv-x="1048" d="M59 0l263 1425h876l-57 -319h-500l-43 -232h442l-59 -323h-442l-103 -551h-377z" />
<glyph unicode="G" horiz-adv-x="1155" d="M142 308q-5 37 -5 75q0 65 13 135l67 363q10 55 23.5 108t31.5 107q55 158 177 251t311 93q102 0 185 -27t138.5 -77t82.5 -122q22 -55 22 -121q0 -20 -2 -40l-346 -88v8q0 78 -29 111.5t-70 33.5q-39 0 -63.5 -18.5t-40.5 -46t-24.5 -60t-14.5 -63.5l-84 -461 q-4 -27 -5 -54.5t8 -49t29.5 -36t57.5 -14.5q35 0 60.5 15.5t42 39t25.5 48t13 43.5l15 71h-117l51 275h480l-46 -279q-12 -115 -51 -213t-106.5 -170.5t-167 -114.5t-236.5 -42q-133 0 -222 41t-140 111.5t-63 167.5z" />
<glyph unicode="H" horiz-adv-x="1183" d="M59 0l263 1425h376l-98 -540h234l98 540h375l-263 -1425h-374l102 557h-233l-103 -557h-377z" />
<glyph unicode="I" horiz-adv-x="618" d="M80 0l262 1425h377l-262 -1425h-377z" />
<glyph unicode="J" horiz-adv-x="997" d="M-4 197l266 237q47 -63 90 -82.5t78 -19.5q53 0 85 33.5t42 91.5l178 968h373l-182 -991q-43 -229 -164 -336.5t-338 -107.5q-117 0 -230.5 43t-197.5 164z" />
<glyph unicode="K" horiz-adv-x="1232" d="M59 0l263 1425h376l-82 -440h9l374 440h443l-529 -602l277 -823h-412l-145 498l-133 -148l-64 -350h-377z" />
<glyph unicode="L" horiz-adv-x="1034" d="M59 0l263 1425h376l-202 -1103h514l-58 -322h-893z" />
<glyph unicode="M" horiz-adv-x="1486" d="M59 0l263 1425h364l70 -335l69 -345h13l186 326l203 354h383l-262 -1425h-365l111 600h-9l-114 -211l-82 -160h-287l-24 164l-35 213h-6l-113 -606h-365z" />
<glyph unicode="N" horiz-adv-x="1243" d="M59 0l263 1425h329l121 -338l98 -313h11l118 651h365l-262 -1425h-328l-119 360l-96 304h-10l-121 -664h-369z" />
<glyph unicode="O" horiz-adv-x="1163" d="M138 352v8q0 85 22 203q23 131 39 216t28.5 140.5t21.5 87t15 56.5q47 174 165 276.5t323 102.5q123 0 216 -37t150 -105q58 -70 78 -166q10 -48 11 -100q0 -54 -11 -112q-16 -90 -29.5 -181.5t-33.5 -179.5q-10 -45 -16.5 -74.5t-10.5 -51t-9 -41t-12 -44.5 q-45 -174 -161.5 -268t-339.5 -94q-154 0 -264.5 57t-151.5 152q-29 67 -30 155zM508 395q0 -43 29.5 -63.5t70.5 -20.5q55 0 84 38t43 104q25 117 42.5 220t37.5 214q6 37 11 71.5t8 69.5q-2 41 -28 64.5t-67 23.5t-70.5 -24.5t-43.5 -65.5q-10 -35 -21.5 -78t-17.5 -78 q-16 -86 -30.5 -162.5t-29.5 -170.5q-6 -37 -11 -72t-7 -70z" />
<glyph unicode="P" horiz-adv-x="1120" d="M59 0l263 1425h505q184 0 285.5 -85t101.5 -273q0 -125 -38.5 -225.5t-110.5 -170t-171 -107.5t-218 -38h-148q-23 -131 -48 -263t-48 -263h-373zM586 836h86q33 0 63.5 11t55 32.5t39 55.5t14.5 77q0 53 -29 78.5t-78 25.5h-100z" />
<glyph unicode="Q" horiz-adv-x="1177" d="M138 352v8q0 85 22 203q23 131 39 216t28.5 140.5t21.5 87t15 56.5q47 174 165 276.5t323 102.5q123 0 216 -37t150.5 -105.5t77.5 -165.5q11 -47 11 -100t-11 -112q-16 -90 -29.5 -181.5t-33.5 -179.5q-10 -45 -16.5 -74.5t-10.5 -51t-9 -41t-12 -44.5q-14 -59 -41 -117 l107 -116l-195 -187l-100 111q-111 -53 -272 -53q-154 0 -264.5 57t-151.5 152q-29 68 -30 155zM508 395q0 -43 29.5 -63.5t70.5 -20.5h4l-77 86l192 189l29 -33l59 334q6 37 11 71.5t8 69.5q-2 41 -28 64.5t-67 23.5t-70.5 -24.5t-43.5 -65.5q-10 -35 -21.5 -78t-17.5 -78 q-16 -86 -30.5 -162.5t-29.5 -170.5q-6 -37 -11 -72t-7 -70z" />
<glyph unicode="R" horiz-adv-x="1165" d="M59 0l263 1425h524q84 0 152.5 -22.5t117.5 -66.5t76 -112.5t27 -160.5q0 -311 -267 -442l107 -621h-381l-70 541h-80l-98 -541h-371zM586 850h78q27 0 57.5 9t57 28.5t44 52.5t17.5 82q0 47 -27 70.5t-72 23.5h-106z" />
<glyph unicode="S" horiz-adv-x="1103" d="M59 266l279 203q41 -78 97.5 -114t115.5 -36q72 0 114 35t42 86q0 47 -46.5 75t-113.5 58q-143 63 -232.5 153.5t-89.5 223.5q0 113 39 203t106.5 152.5t161 95.5t201.5 33q147 0 250.5 -54.5t169.5 -152.5l-256 -242q-41 68 -93.5 94.5t-101.5 26.5q-47 0 -80.5 -26.5 t-33.5 -67.5q0 -47 50 -78t130 -68q168 -82 249 -171t81 -220q0 -121 -44 -212t-119 -151.5t-175.5 -91t-212.5 -30.5q-180 0 -303 80t-185 196z" />
<glyph unicode="T" horiz-adv-x="1015" d="M188 1106l60 319h962l-57 -319h-295l-203 -1106h-376l202 1106h-293z" />
<glyph unicode="U" horiz-adv-x="1181" d="M147 377v24q2 86 19 179l156 845h372l-180 -972q-2 -10 -3 -19.5t-1 -19.5q0 -51 26.5 -77t73.5 -26q57 0 92 42t46 104q4 23 8 44t8 44l162 880h377q-41 -217 -80 -432t-80 -432q-8 -47 -18.5 -90t-22.5 -88q-49 -178 -174 -285.5t-342 -107.5q-111 0 -194 28.5t-137 80 t-81 122t-27 156.5z" />
<glyph unicode="V" horiz-adv-x="1204" d="M242 1425h374q4 -129 10 -256q4 -93 4 -187q0 -34 -1 -69q-1 -53 -1 -106.5t1 -107t1 -111.5t-1 -119h10q41 109 81 215.5t81 216.5l203 524h399q-158 -358 -313.5 -712.5t-315.5 -712.5h-426z" />
<glyph unicode="W" horiz-adv-x="1617" d="M240 0l2 1425h366l-24 -432q-2 -23 -5.5 -72t-7.5 -106t-8 -109.5t-6 -76.5h8l137 364l164 432h312l4 -440v-72v-104v-104.5t-2 -69.5h8l100 334l137 456h396l-523 -1425h-378l-9 342l-2 373l-10 -2q-8 -25 -27.5 -75t-40 -104.5t-40 -102.5t-27.5 -71l-148 -360h-376z " />
<glyph unicode="X" horiz-adv-x="1208" d="M-16 0l512 735l-230 690h389l86 -364l9 4l215 360h428q-123 -174 -244 -345t-244 -345l248 -735h-391q-23 104 -48.5 206.5t-47.5 207.5l-7 2l-251 -416h-424z" />
<glyph unicode="Y" horiz-adv-x="1140" d="M242 1425h370l35 -268q8 -68 15.5 -126t9.5 -144h8l119 256l135 282h407l-522 -870l-104 -555h-375l100 541z" />
<glyph unicode="Z" horiz-adv-x="1015" d="M18 0l54 293l637 817h-465l57 315h875l-52 -286l-637 -817h486l-60 -322h-895z" />
<glyph unicode="[" horiz-adv-x="681" d="M45 -201l301 1631h496l-43 -236h-152l-215 -1157h152l-43 -238h-496z" />
<glyph unicode="\" horiz-adv-x="747" d="M238 1485h303l147 -1569h-301z" />
<glyph unicode="]" horiz-adv-x="681" d="M-14 -201l43 238h149l215 1157h-149l43 236h495l-303 -1631h-493z" />
<glyph unicode="^" horiz-adv-x="1091" d="M98 553l514 870h303l193 -872h-320l-77 487h-6l-252 -485h-355z" />
<glyph unicode="_" horiz-adv-x="999" d="M-104 -346l43 225h995l-43 -225h-995z" />
<glyph unicode="`" horiz-adv-x="901" d="M438 1546l260 125l187 -471l-197 -92z" />
<glyph unicode="a" horiz-adv-x="1038" d="M86 223q0 68 7 143.5t20 141.5q20 100 50 195.5t78 169t117.5 117.5t167.5 44q18 0 45 -3t55.5 -14t54.5 -29.5t42 -49.5h8q4 20 7 39.5t7 38.5h355l-189 -1016h-364l12 68q-2 0 -4 2q-31 -29 -63.5 -45.5t-63.5 -24.5t-55.5 -11t-36.5 -3q-135 0 -192.5 64.5 t-57.5 172.5zM465 385q0 -33 8 -63.5t49 -30.5q18 0 31.5 8t24.5 20q23 25 43 90.5t32 139.5q6 29 8.5 55.5t2.5 52.5q0 33 -12.5 54.5t-47.5 21.5q-16 0 -28.5 -9t-22.5 -19q-39 -47 -68 -177q-8 -37 -14 -73.5t-6 -69.5z" />
<glyph unicode="b" horiz-adv-x="1038" d="M43 0l276 1499h365l-106 -557q2 0 4 -2q55 53 120.5 74.5t106.5 21.5q131 0 188.5 -69.5t57.5 -180.5q0 -72 -8.5 -149.5t-22.5 -152t-33.5 -139t-40.5 -107.5q-102 -252 -346 -252q-16 0 -41.5 3t-51.5 13t-50.5 28.5t-40.5 49.5h-8q-4 -20 -7.5 -40t-7.5 -40h-354z M481 375q0 -35 10.5 -58.5t47.5 -23.5q16 0 30.5 8t22.5 18q23 16 39 63.5t31 113.5q6 29 9 59.5t7 58.5q0 16 -1 36t-5 37.5t-16.5 28.5t-32.5 11q-45 0 -69 -41t-36 -94q-20 -82 -28.5 -129t-8.5 -88z" />
<glyph unicode="c" horiz-adv-x="935" d="M102 317q0 82 13 179q16 111 47 201.5t71 150.5q63 92 154.5 142t228.5 50q147 0 243.5 -68.5t113.5 -193.5l-271 -137q-16 53 -39.5 72.5t-48.5 19.5q-57 0 -81.5 -43t-40.5 -106q-12 -47 -20.5 -97.5t-10.5 -95.5v-9q0 -36 13 -60q15 -28 65 -27q27 0 61.5 20.5 t69.5 73.5q59 -35 125.5 -71.5t126.5 -71.5q-63 -135 -177 -196.5t-262 -61.5q-201 0 -291 89t-90 240z" />
<glyph unicode="d" horiz-adv-x="1038" d="M82 233q0 66 11 141t22 142q16 88 40.5 179t59.5 149q45 82 119 137t192 55q41 0 98.5 -13t96.5 -58q2 2 6 2q23 135 48.5 266t47.5 266h365l-277 -1499h-354l16 84h-8q-29 -29 -62.5 -48.5t-66.5 -30.5t-60.5 -15t-43.5 -4q-137 0 -193.5 68.5t-56.5 178.5zM467 373 q0 -29 8 -54.5t47 -25.5q47 0 71.5 49t43.5 143q10 47 16 82t9 64q2 13 2 25q0 20 -6 40q-10 30 -52 31q-33 0 -53 -29q-14 -16 -27.5 -46.5t-25 -66.5t-18.5 -76t-11 -75q-2 -16 -3 -30.5t-1 -30.5z" />
<glyph unicode="e" horiz-adv-x="978" d="M100 326q0 41 4.5 85t10.5 83q14 100 46 198.5t89 176t146 124.5t220 47q98 0 169 -22.5t118 -60t69.5 -89t22.5 -106.5q0 -104 -41 -175t-110.5 -114t-160.5 -61.5t-191 -18.5q-10 0 -21.5 1t-24.5 1q-4 -25 -4 -45q0 -32 12 -50q20 -28 81 -28q33 0 71.5 19.5 t75.5 66.5l242 -149q-66 -121 -178.5 -174t-264.5 -53q-84 0 -153.5 22.5t-120.5 65.5t-79 107.5t-28 148.5zM483 618q92 0 132 20.5t40 59.5q0 23 -12 39.5t-43 16.5q-39 0 -71.5 -32t-45.5 -104z" />
<glyph unicode="f" horiz-adv-x="782" d="M-117 -369l60 299q14 -2 28.5 -3t26.5 -1q66 0 96.5 20.5t40.5 73.5q35 184 69 365.5t68 364.5h-114l51 266h113l28 143q14 70 44 132.5t78 107.5t116.5 71.5t161.5 26.5q45 0 99 -5t99 -15l-55 -295q-55 6 -88 6q-49 -2 -72.5 -22.5t-34.5 -67.5l-16 -82h166l-51 -266 h-166q-39 -201 -75 -400.5t-75 -398.5q-12 -68 -37.5 -129.5t-68.5 -108.5t-109.5 -74.5t-163.5 -27.5q-16 0 -43.5 1t-58.5 3t-61.5 6t-55.5 10z" />
<glyph unicode="g" horiz-adv-x="1038" d="M14 -203q63 37 132 75t133 75q35 -45 69.5 -58.5t59.5 -13.5q51 0 87.5 24.5t51.5 86.5l26 125h-6q-66 -57 -122 -77t-113 -20q-131 0 -188.5 70t-57.5 180q0 72 9 144.5t23.5 140t33 127t36.5 104.5q51 117 135 184.5t207 67.5q16 0 41 -3t51.5 -13t52 -28.5t44.5 -49.5 h8q4 20 7 39.5t7 40.5h355q-41 -225 -77 -447.5t-77 -447.5q-10 -59 -22.5 -112.5t-28.5 -104.5q-51 -172 -165 -254t-318 -82q-147 0 -253 54t-141 173zM463 436q0 -16 1 -36.5t5 -37t15 -27.5t34 -11q45 0 70.5 41t38.5 94q20 82 25 122t5 62q0 35 -10 58.5t-47 23.5 q-16 0 -29.5 -8t-23.5 -19q-18 -20 -39 -67t-31 -96q-6 -29 -8 -49.5t-6 -49.5z" />
<glyph unicode="h" horiz-adv-x="1050" d="M45 0l277 1499h358l-109 -569l7 -2q74 63 147.5 87.5t122.5 24.5q78 0 126 -24.5t70 -68.5q23 -45 25 -105q0 -9 1 -17q0 -53 -11 -116l-129 -709h-363l107 588q5 24 5 43q0 21 -6 35q-11 28 -55 28q-25 0 -43 -16t-31.5 -39t-21.5 -49.5t-12 -46.5l-102 -543h-363z" />
<glyph unicode="i" horiz-adv-x="581" d="M70 0l188 1018h360l-188 -1018h-360zM285 1165l53 291h360l-53 -291h-360z" />
<glyph unicode="j" horiz-adv-x="589" d="M-154 -420l60 316h53q63 0 88 32.5t35 94.5l184 995h361l-205 -1104q-35 -170 -137.5 -254t-292.5 -84h-25.5h-46t-46 1t-28.5 3zM293 1165l55 291h361l-54 -291h-362z" />
<glyph unicode="k" horiz-adv-x="1087" d="M45 0l274 1487h361l-135 -727l8 -2l233 258h422l-395 -400l231 -616h-393l-108 344l-99 -104l-41 -240h-358z" />
<glyph unicode="l" horiz-adv-x="628" d="M125 262q0 23 3 47.5t7 52.5l209 1125h358l-204 -1094q-2 -8 -2 -22q0 -33 21.5 -48.5t70.5 -23.5l-56 -303h-59q-78 0 -141.5 14.5t-109.5 45t-71.5 81.5t-25.5 125z" />
<glyph unicode="m" horiz-adv-x="1536" d="M45 0l186 1018h359l-23 -115l8 -2q72 78 147 108.5t120 30.5q84 0 136 -35.5t66 -101.5q45 47 88.5 75t80 41t66.5 17t48 4q80 0 129 -24.5t72 -68.5q24 -43 26 -105q0 -8 1 -16q0 -55 -13 -119l-129 -707h-362l108 588q6 27 6 48q0 18 -4 30q-8 28 -51 28t-64.5 -38 t-29.5 -76l-107 -580h-360l106 588q6 27 6 48q0 18 -4 30q-8 28 -49 28q-23 0 -39 -12t-28.5 -30.5t-19.5 -42t-11 -46.5l-104 -563h-361z" />
<glyph unicode="n" horiz-adv-x="1050" d="M45 0l186 1018h359l-23 -119l8 -2q35 41 73 68.5t75 44t68.5 23.5t54.5 7q78 0 126 -24.5t70 -68.5q23 -43 25 -105v-18q0 -54 -10 -117l-127 -707h-363l107 592q4 22 4 40q0 22 -6 38q-12 28 -56 28q-25 0 -42 -13t-29.5 -33.5t-20.5 -45t-12 -45.5l-104 -561h-363z" />
<glyph unicode="o" horiz-adv-x="1019" d="M102 342q0 41 5.5 84t11.5 84q18 104 51 195.5t88 160.5q57 76 145.5 126t229.5 50q104 0 178 -26.5t122 -73.5t69.5 -114.5t21.5 -147.5q0 -53 -7 -113.5t-21.5 -121t-33 -115t-40.5 -92.5q-35 -72 -79 -121t-96.5 -78t-114 -41t-128.5 -12q-215 0 -308.5 96t-93.5 260z M461 375q0 -29 9 -56.5t44 -27.5q31 0 51.5 17.5t35.5 46t24.5 65.5t17.5 76q10 47 15.5 89t5.5 77q0 33 -11.5 54t-48.5 21q-31 0 -55 -28q-39 -47 -70 -191q-18 -86 -18 -143z" />
<glyph unicode="p" horiz-adv-x="1038" d="M-29 -406l260 1422h355l-15 -84h9q27 31 59.5 49t64 29.5t59.5 15.5t46 4q129 0 189.5 -66.5t60.5 -185.5q0 -61 -8.5 -144t-24.5 -168t-39.5 -163t-52.5 -131q-43 -80 -118 -136t-195 -56q-41 0 -100.5 13t-98.5 56q-2 0 -4 -2l-84 -453h-363zM481 362q0 -31 11.5 -52 t46.5 -21q27 0 48 20.5t36.5 53t25.5 75.5t17 86q6 35 10 66t4 63q0 29 -12.5 49.5t-42.5 20.5q-49 0 -76 -54.5t-45 -140.5q-23 -113 -23 -166z" />
<glyph unicode="q" horiz-adv-x="1038" d="M88 231q0 72 8 150t22.5 152.5t34 139t40.5 107.5q100 252 346 252q16 0 41.5 -3t51 -13t50.5 -28.5t41 -49.5h8q4 20 8 39.5t9 40.5h352l-264 -1424h-365q12 70 24.5 127.5t24.5 112.5t24.5 113.5t24.5 128.5q-2 0 -4 2q-55 -53 -122.5 -74.5t-108.5 -21.5 q-131 0 -188.5 69.5t-57.5 179.5zM465 403q0 -16 1 -36.5t5 -37t15 -27.5t34 -11q45 0 68.5 41t36.5 94q20 82 28.5 129t8.5 88q0 35 -10.5 58.5t-47.5 23.5q-16 0 -30.5 -8t-22.5 -19q-23 -16 -39 -63t-31 -113q-6 -29 -9 -59.5t-7 -59.5z" />
<glyph unicode="r" horiz-adv-x="835" d="M72 0l186 1018h360l-30 -150l6 -2q61 96 135 135t135 39q23 0 54.5 -6t50.5 -14l-121 -379q-63 23 -121 23q-78 0 -133 -50.5t-76 -158.5l-84 -455h-362z" />
<glyph unicode="s" horiz-adv-x="937" d="M51 238l256 135q35 -66 71 -86.5t89 -20.5q31 0 57.5 16.5t26.5 45.5q0 23 -23.5 35t-60.5 22q-47 14 -98.5 33.5t-93.5 52.5t-69.5 83t-27.5 126q0 88 37 155.5t95.5 113.5t132 69.5t147.5 23.5q135 0 234.5 -53t144.5 -158l-234 -159q-31 57 -71.5 72.5t-73.5 15.5 q-41 0 -57.5 -19.5t-16.5 -29.5q0 -29 23.5 -42.5t74.5 -27.5q45 -12 95.5 -32.5t93.5 -53.5t70.5 -82t27.5 -119q0 -84 -29.5 -153.5t-87.5 -118.5q-59 -50 -144 -74q-73 -21 -167 -21q-15 0 -31 1q-162 6 -253 69.5t-138 180.5z" />
<glyph unicode="t" horiz-adv-x="743" d="M147 750l50 268h106l53 282h357l-54 -282h152l-49 -268h-150l-63 -336q-3 -19 -3 -35q0 -30 12 -43q20 -21 71 -21h55l-57 -315h-150q-186 0 -259 90q-49 61 -49 166q0 50 11 111l70 383h-103z" />
<glyph unicode="u" horiz-adv-x="1050" d="M84 170v17q0 52 10 116l133 715h363l-111 -590q-3 -20 -3 -37q0 -25 6 -41q12 -28 55 -28q23 0 41 13t31.5 32.5t22.5 43t13 44.5l105 563h362l-188 -1018h-359l27 123l-6 2q-35 -45 -74 -73.5t-76 -44t-69.5 -20.5t-53.5 -5q-80 0 -129 22.5t-73.5 64.5t-26.5 101z" />
<glyph unicode="v" horiz-adv-x="1101" d="M168 1018h385l10 -336q1 -24 1 -49q0 -38 -2 -81q-3 -71 -11 -165h12q53 115 115.5 277.5t122.5 353.5h399q-55 -147 -112.5 -279.5t-120 -256.5t-133 -242.5t-150.5 -239.5h-387z" />
<glyph unicode="w" horiz-adv-x="1552" d="M156 1016h387v-307q0 -53 -1 -119t-10 -125h9q57 125 106 253t103 298h313v-279q0 -49 -1 -127t-7 -145h10q59 129 107.5 260t93.5 291h405q-53 -147 -109.5 -278.5t-116 -254.5t-125 -241.5t-138.5 -241.5h-363q2 57 2 113.5v113.5q0 76 1 136.5t5 119.5h-6 q-31 -82 -62.5 -160.5t-64.5 -150.5q-20 -45 -40.5 -88t-41.5 -84h-376z" />
<glyph unicode="x" horiz-adv-x="1042" d="M-14 0l379 518l-179 502h373l51 -252h4l146 252h407q-94 -127 -187 -251t-185 -251l196 -518h-373l-61 274h-4l-158 -274h-409z" />
<glyph unicode="y" horiz-adv-x="1038" d="M-41 -143q115 12 186.5 48t128.5 111l-129 1002h375l12 -283q2 -37 2 -87q1 -8 1 -17q0 -42 -3 -86q-2 -53 -5 -103.5t-7 -85.5h10q29 57 60 133t60.5 162t58 179.5t57.5 187.5h381q-55 -152 -113.5 -302.5t-122 -293.5t-134 -273.5t-150.5 -240.5q-49 -68 -111.5 -132.5 t-142.5 -114.5t-178.5 -80t-217.5 -30z" />
<glyph unicode="z" horiz-adv-x="907" d="M18 0l48 264l458 475h-344l51 279h762l-47 -250l-463 -479h375l-53 -289h-787z" />
<glyph unicode="{" horiz-adv-x="727" d="M109 508l41 219q66 4 107.5 45t57.5 129l43 238q25 141 104 213.5t208 72.5h223l-45 -241h-64q-35 0 -60.5 -20.5t-33.5 -67.5l-43 -236q-6 -37 -19.5 -76t-34 -71.5t-50 -56t-68.5 -31.5l-2 -9q57 -31 81 -82t3 -159l-47 -250q-10 -41 10.5 -62.5t54.5 -21.5h62 l-45 -240h-184q-59 0 -110.5 16.5t-85.5 51.5t-48 88t0 127l47 252q6 31 6 59.5t-11 51t-33.5 39t-63.5 22.5z" />
<glyph unicode="|" horiz-adv-x="608" d="M70 -395q41 475 84 945t86 945h321q-43 -475 -86 -945t-84 -945h-321z" />
<glyph unicode="}" horiz-adv-x="727" d="M-18 -197l45 242h63q35 0 60.5 20.5t33.5 67.5l43 236q6 37 19.5 75.5t34 71.5t50 56.5t68.5 31.5l2 8q-59 31 -81.5 82t-2.5 160l48 250q10 41 -10.5 62.5t-55.5 21.5h-61l45 239h184q59 0 110.5 -16t85 -51t48 -88t0.5 -127l-47 -252q-6 -31 -6.5 -59.5t11 -51t34 -39 t63.5 -22.5l-41 -219q-66 -4 -108 -45t-58 -129l-43 -238q-25 -141 -103.5 -214t-207.5 -73h-223z" />
<glyph unicode="~" horiz-adv-x="1073" d="M135 528q76 129 152.5 194.5t185.5 65.5q47 0 87 -18t76 -39.5t66.5 -39t59.5 -17.5q41 0 85 22.5t99 94.5l141 -111q-70 -141 -148.5 -199.5t-164.5 -58.5q-47 0 -88 17.5t-78 39t-70.5 39t-66.5 17.5q-20 0 -41.5 -4.5t-46.5 -16.5t-52.5 -35.5t-60.5 -62.5z" />
<glyph unicode="&#xa1;" horiz-adv-x="663" d="M29 -408l211 1000h323l-162 -1000h-372zM240 705l59 313h363l-58 -313h-364z" />
<glyph unicode="&#xa2;" d="M172 317q0 82 12 179q16 111 47 201.5t72 150.5q57 82 136 131t194 59l45 226h147l-45 -232q111 -20 179.5 -84.5t82.5 -169.5l-270 -137q-16 53 -39.5 72.5t-48.5 19.5q-57 0 -81.5 -43t-41.5 -106q-12 -47 -20.5 -97.5t-10.5 -95.5q-2 -41 13.5 -68.5t64.5 -27.5 q27 0 62 20.5t69 73.5q59 -35 126 -71.5t126 -71.5q-59 -127 -162.5 -188.5t-238.5 -67.5q-10 -61 -22.5 -129t-22.5 -113h-148l47 248q-143 23 -207.5 107.5t-64.5 213.5z" />
<glyph unicode="&#xa3;" d="M55 0l49 270q63 61 103.5 128t62.5 139h-118l45 237h102q-8 59 -12 114.5t-4 112.5q0 86 27.5 165t85 139.5t146.5 95.5t214 35q164 0 272.5 -78t130.5 -238l-301 -135q-8 55 -33.5 93t-72.5 38q-33 0 -54.5 -14.5t-35 -38t-18.5 -52t-5 -57.5q0 -39 4 -83t6 -97h258 l-45 -237h-235q-16 -63 -43 -124t-64 -112h455l-55 -301h-865z" />
<glyph unicode="&#xa5;" d="M168 307l33 178h207l10 56l-6 30h-193l33 183h123l-123 671h362l19 -258l16 -270h6l113 268l115 260h395l-375 -671h133l-32 -183h-205l-17 -30l-10 -56h215l-33 -178h-215l-55 -307h-365l56 307h-207z" />
<glyph unicode="&#xa7;" horiz-adv-x="1001" d="M41 12l178 195q27 -29 57.5 -51.5t62.5 -38t61.5 -23.5t54.5 -8q59 0 96 29.5t37 77.5q0 29 -24.5 54t-86.5 54q-68 37 -124 67.5t-97 66.5t-63.5 80t-22.5 108q0 86 44 158.5t122 113.5q-31 35 -44 81t-13 93q0 90 33.5 158.5t90 115t131 70t156.5 23.5q45 0 96.5 -5.5 t100.5 -19.5t96 -41t86 -67l-164 -199q-66 53 -116 68.5t-99 15.5q-59 0 -84.5 -26.5t-25.5 -53.5q0 -35 30.5 -61.5t76.5 -51t99.5 -52.5t99.5 -65.5t76.5 -89t30.5 -124.5q0 -90 -45 -157t-112 -108q35 -35 49 -87t14 -101q0 -88 -36 -156.5t-97 -116t-142 -72t-171 -24.5 q-57 0 -115.5 12.5t-114 35t-102.5 53t-80 69.5zM444 684q0 -23 20.5 -42t53.5 -36.5t72 -34t76 -34.5q45 35 45 77q0 20 -11.5 37t-36 32t-64.5 33.5t-97 43.5q-23 -12 -40.5 -31.5t-17.5 -44.5z" />
<glyph unicode="&#xa8;" horiz-adv-x="964" d="M297 1137l51 272h291l-49 -272h-293zM727 1137l49 272h295l-51 -272h-293z" />
<glyph unicode="&#xa9;" horiz-adv-x="1626" d="M100 711q0 164 50.5 302t142.5 239.5t222 157.5t290 56q158 0 288 -56t222 -156.5t143 -238.5t51 -304q0 -164 -51 -301.5t-143 -238.5t-222 -157.5t-288 -56.5q-162 0 -292 56.5t-222 155.5t-141.5 237.5t-49.5 304.5zM330 711q0 -115 33.5 -214.5t95 -172t149.5 -114.5 t197 -42q111 0 199 42t149 114.5t95 172t34 214.5q0 117 -34 217t-96 173t-150 114.5t-197 41.5q-111 0 -199 -43t-149.5 -116.5t-94 -173t-32.5 -213.5zM504 578v210q0 29 1 57.5t3 57.5q10 113 88 185.5t215 72.5q141 0 215 -75.5t82 -186.5l-223 -53q-4 47 -22.5 74.5 t-53.5 27.5q-37 0 -53.5 -24.5t-16.5 -57.5v-331q0 -31 15.5 -54.5t50.5 -23.5q29 0 51.5 27.5t28.5 78.5l227 -55q-20 -113 -92 -188.5t-211 -75.5q-135 0 -213 66.5t-88 185.5q-2 20 -3 39.5t-1 42.5z" />
<glyph unicode="&#xaa;" horiz-adv-x="708" d="M145 752q4 78 19.5 161.5t38.5 143.5q61 176 235 176q29 0 67 -12.5t62 -44.5l8 45h265l-121 -650h-270l10 50q-39 -33 -83 -44.5t-67 -11.5q-61 0 -94 17.5t-48 44t-18.5 59.5t-3.5 66zM418 831q-4 -29 5.5 -39t25.5 -10q33 0 46 47.5t29 145.5q4 20 -4 33.5t-31 13.5 q-16 0 -24 -12q-8 -10 -16.5 -32t-14.5 -48.5t-10 -53t-6 -45.5z" />
<glyph unicode="&#xab;" horiz-adv-x="1286" d="M141 481l340 424h350l-337 -424l180 -424h-350zM618 481l343 424h348l-338 -424l180 -424h-348z" />
<glyph unicode="&#xac;" d="M119 492l51 280h942l-111 -606h-296l59 326h-645z" />
<glyph unicode="&#xad;" horiz-adv-x="878" d="M133 389l55 301h691l-56 -301h-690z" />
<glyph unicode="&#xae;" horiz-adv-x="1052" d="M76 952q0 104 32.5 193.5t93 154t144.5 101.5t186 37t186.5 -37t145 -101.5t93 -153.5t32.5 -194q0 -104 -33.5 -192t-94 -152.5t-145 -101.5t-184.5 -37q-104 0 -189 37t-144.5 101.5t-91 152.5t-31.5 192zM217 954q0 -74 22.5 -138t63.5 -110.5t99.5 -73t129.5 -26.5 q74 0 131.5 26.5t97.5 74t61.5 111t21.5 136.5q0 74 -21.5 138.5t-62.5 111.5t-98.5 75t-129.5 28q-74 0 -132 -28t-99 -75t-62.5 -111.5t-21.5 -138.5zM362 711v503h187q70 0 118 -37.5t48 -115.5q0 -86 -68 -127l86 -223h-143l-66 196h-26v-196h-136zM498 1014h34 q18 0 32 11t14 34q0 47 -43 47h-37v-92z" />
<glyph unicode="&#xaf;" horiz-adv-x="937" d="M360 1161l48 254h606l-47 -254h-607z" />
<glyph unicode="&#xb0;" horiz-adv-x="858" d="M102 1116q0 66 26 124t71 101t105.5 69t127.5 26q70 0 130.5 -26t105.5 -69t70.5 -101t25.5 -124t-25.5 -124t-70.5 -101t-105.5 -68.5t-130.5 -25.5q-68 0 -128 25.5t-105 68.5t-71 101.5t-26 123.5zM315 1116q0 -47 33 -82t84 -35t85 35t34 82q0 49 -34 83t-85 34 t-84 -34t-33 -83z" />
<glyph unicode="&#xb1;" d="M43 0l49 268h918l-49 -268h-918zM143 608l52 279h323l51 284h297l-51 -284h322l-52 -279h-323l-51 -278h-297l51 278h-322z" />
<glyph unicode="&#xb4;" horiz-adv-x="901" d="M455 1190l274 442l244 -125l-346 -415z" />
<glyph unicode="&#xb6;" horiz-adv-x="1146" d="M211 956q0 80 25.5 170.5t83 165t149.5 123.5t225 49h606l-43 -223h-96l-256 -1386h-239l256 1386h-99l-256 -1386h-248l150 796q-72 6 -121 33t-79.5 68t-44 93t-13.5 111z" />
<glyph unicode="&#xb7;" horiz-adv-x="618" d="M158 432l65 354h379l-65 -354h-379z" />
<glyph unicode="&#xb8;" horiz-adv-x="892" d="M86 -442l70 145q41 -16 73.5 -22.5t61.5 -6.5q49 0 75.5 21.5t26.5 54.5q0 37 -51 37q-14 0 -25 -2l-73 61l131 238h141q-23 -41 -48.5 -82t-47.5 -82q55 -4 92 -19.5t57.5 -37t28.5 -48t8 -53.5v-8q-2 -27 -17.5 -67.5t-50 -78.5t-94 -65.5t-149.5 -27.5q-33 0 -90.5 7 t-118.5 36z" />
<glyph unicode="&#xba;" horiz-adv-x="692" d="M158 813q0 92 21.5 169t65.5 132t111.5 86t159.5 31q86 0 140.5 -24.5t84 -66.5t36.5 -97.5t1 -118.5q-14 -176 -100 -270.5t-246 -94.5q-78 0 -131 19.5t-85 54.5t-45 81t-13 99zM416 815q0 -20 5 -30.5t28 -14.5q31 0 45 38t22 79q4 25 8 49.5t4 42.5q0 16 -6 28.5 t-22 12.5q-35 0 -47.5 -32t-24.5 -87q-12 -61 -12 -86z" />
<glyph unicode="&#xbb;" horiz-adv-x="1286" d="M74 57l336 424l-179 424h349l182 -424l-340 -424h-348zM551 57l338 424l-180 424h348l184 -424l-342 -424h-348z" />
<glyph unicode="&#xbf;" horiz-adv-x="1042" d="M49 -115q0 63 16.5 118.5t43 102t59.5 86t68 74.5q74 84 117.5 146.5t58.5 134.5l12 57h354l-14 -74q-12 -72 -48 -143.5t-126 -163.5q-72 -88 -110 -147.5t-38 -124.5q0 -29 15.5 -42t40.5 -13q35 0 65.5 31.5t54.5 119.5l340 -37q-49 -219 -188 -324.5t-330 -105.5 q-186 0 -288.5 80t-102.5 225zM438 705l58 313h360l-59 -313h-359z" />
<glyph unicode="&#xc0;" horiz-adv-x="1236" d="M-25 0l654 1425h422l127 -1425h-383l-11 252h-319l-98 -252h-392zM430 1710l193 244l391 -312l-137 -172zM592 559h178l-2 166v262h-12l-103 -268z" />
<glyph unicode="&#xc1;" horiz-adv-x="1236" d="M-25 0l654 1425h422l127 -1425h-383l-11 252h-319l-98 -252h-392zM592 559h178l-2 166v262h-12l-103 -268zM680 1649l448 270l121 -248l-479 -194z" />
<glyph unicode="&#xc2;" horiz-adv-x="1236" d="M-25 0l654 1425h422l127 -1425h-383l-11 252h-319l-98 -252h-392zM481 1608l334 288h225l226 -290l-136 -131l-243 178l-309 -176zM592 559h178l-2 166v262h-12l-103 -268z" />
<glyph unicode="&#xc3;" horiz-adv-x="1236" d="M-25 0l654 1425h422l127 -1425h-383l-11 252h-319l-98 -252h-392zM481 1587q72 133 149 188.5t152 55.5q39 0 72 -13.5t60.5 -28.5t52 -27.5t51.5 -12.5q31 0 61.5 18.5t71.5 65.5l139 -86q-35 -70 -71.5 -116t-74.5 -73.5t-75 -40t-70 -12.5t-61.5 12.5t-56 28t-54 27.5 t-55.5 12q-27 0 -65.5 -17.5t-83.5 -70.5zM592 559h178l-2 166v262h-12l-103 -268z" />
<glyph unicode="&#xc4;" horiz-adv-x="1236" d="M-25 0l654 1425h422l127 -1425h-383l-11 252h-319l-98 -252h-392zM494 1509l51 273h293l-52 -273h-292zM592 559h178l-2 166v262h-12l-103 -268zM924 1509l51 273h293l-51 -273h-293z" />
<glyph unicode="&#xc5;" horiz-adv-x="1236" d="M-25 0l654 1425h125q-63 23 -102.5 75t-39.5 122q0 61 25 113.5t65.5 90.5t94 59.5t112.5 21.5q96 0 161 -59.5t65 -151.5q0 -104 -59.5 -174t-143.5 -97h119l127 -1425h-383l-11 252h-319l-98 -252h-392zM592 559h178l-2 166v262h-12l-103 -268zM793 1645 q0 -29 18 -47.5t49 -18.5q37 0 66.5 28.5t29.5 63.5q0 27 -18 45.5t-49 18.5q-39 0 -67.5 -28t-28.5 -62z" />
<glyph unicode="&#xc6;" horiz-adv-x="1787" d="M-47 0l811 1425h1085l-43 -319h-469l-30 -219h393l-45 -320h-393l-35 -245h475l-45 -322h-842l37 264h-354l-144 -264h-401zM670 569h225l74 525h-13z" />
<glyph unicode="&#xc7;" horiz-adv-x="1110" d="M135 371q0 39 4 77.5t13 79.5l61 334q12 59 26.5 117.5t32.5 116.5q25 76 65 140t98.5 109.5t136.5 71t180 25.5q111 0 191.5 -30t133.5 -82t80 -123.5t29 -155.5l-348 -88v14q0 78 -28 109.5t-69 31.5q-47 0 -73.5 -25.5t-42.5 -62.5q-8 -25 -15.5 -51.5t-11.5 -54.5 q-23 -123 -44.5 -241t-43.5 -241q-2 -10 -3 -19t-1 -20q0 -41 22.5 -67.5t75.5 -26.5q45 0 81 36t63 122l362 -84q-51 -186 -181 -290.5t-341 -104.5q-10 0 -20.5 1t-20.5 1q-18 -31 -39 -70q55 -4 92 -19.5t57.5 -37t28.5 -48t8 -53.5v-8q-2 -27 -17 -67.5t-50 -78.5 t-94.5 -65.5t-149.5 -27.5q-33 0 -90 7t-119 36l70 145q41 -16 73.5 -22.5t61.5 -6.5q49 0 75.5 21.5t26.5 54.5q0 37 -51 37q-14 0 -24 -2l-74 61q23 41 45 82t45 82q-139 35 -213 128t-74 233z" />
<glyph unicode="&#xc8;" horiz-adv-x="1062" d="M59 0l263 1425h872l-59 -319h-494l-41 -219h434l-59 -320h-434l-45 -245h516l-58 -322h-895zM391 1710l193 244l391 -312l-137 -172z" />
<glyph unicode="&#xc9;" horiz-adv-x="1062" d="M59 0l263 1425h872l-59 -319h-494l-41 -219h434l-59 -320h-434l-45 -245h516l-58 -322h-895zM588 1649l448 270l121 -248l-479 -194z" />
<glyph unicode="&#xca;" horiz-adv-x="1062" d="M59 0l263 1425h872l-59 -319h-494l-41 -219h434l-59 -320h-434l-45 -245h516l-58 -322h-895zM412 1608l333 288h226l225 -290l-135 -131l-244 178l-309 -176z" />
<glyph unicode="&#xcb;" horiz-adv-x="1062" d="M59 0l263 1425h872l-59 -319h-494l-41 -219h434l-59 -320h-434l-45 -245h516l-58 -322h-895zM412 1509l51 273h293l-51 -273h-293zM842 1509l51 273h293l-51 -273h-293z" />
<glyph unicode="&#xcc;" horiz-adv-x="618" d="M80 0l262 1425h377l-262 -1425h-377zM119 1710l192 244l391 -312l-137 -172z" />
<glyph unicode="&#xcd;" horiz-adv-x="618" d="M80 0l262 1425h377l-262 -1425h-377zM401 1649l449 270l121 -248l-479 -194z" />
<glyph unicode="&#xce;" horiz-adv-x="618" d="M80 0l262 1425h377l-262 -1425h-377zM182 1608l334 288h225l226 -290l-136 -131l-243 178l-309 -176z" />
<glyph unicode="&#xcf;" horiz-adv-x="618" d="M80 0l262 1425h377l-262 -1425h-377zM190 1509l52 273h293l-52 -273h-293zM621 1509l51 273h293l-52 -273h-292z" />
<glyph unicode="&#xd0;" horiz-adv-x="1175" d="M61 0l107 582h-88l47 256h88q27 147 53.5 293.5t55.5 293.5h512q74 0 137 -11t112.5 -36.5t81 -69.5t41.5 -112q6 -35 4 -90t-7 -120.5t-14 -134.5t-17 -126q-27 -162 -51.5 -280.5t-69.5 -196.5q-39 -68 -92.5 -116t-118 -76.5t-135 -42t-142.5 -13.5h-504zM492 313h45 q70 0 120 21.5t76 85.5q23 51 38 120.5t30 149.5q6 37 13 79t13.5 83t10.5 79t4 68q0 57 -28 84t-97 27h-78l-51 -272h110l-47 -256h-110z" />
<glyph unicode="&#xd1;" horiz-adv-x="1243" d="M59 0l263 1425h329l121 -338l98 -313h11l118 651h365l-262 -1425h-328l-119 360l-96 304h-10l-121 -664h-369zM481 1583q72 133 149 188.5t152 55.5q39 0 72 -13.5t60.5 -29t52 -27.5t51.5 -12q31 0 61.5 18.5t71.5 65.5l139 -86q-35 -70 -71.5 -116t-74.5 -73.5t-75 -40 t-70 -12.5t-61.5 12.5t-56 27.5t-54 27.5t-55.5 12.5q-27 0 -65.5 -17.5t-83.5 -70.5z" />
<glyph unicode="&#xd2;" horiz-adv-x="1163" d="M138 352.5q-1 87.5 22 210.5q23 131 39 216t28.5 140.5t21.5 87t15 56.5q47 174 165 276.5t323 102.5q123 0 216 -37t150.5 -105.5t78 -165t-0.5 -212.5q-16 -90 -29.5 -181.5t-33.5 -179.5q-10 -45 -16.5 -74.5t-10.5 -51t-9 -41t-12 -44.5q-45 -174 -161.5 -268 t-339.5 -94q-154 0 -264.5 57t-151.5 152q-29 68 -30 155.5zM420 1710l192 244l392 -312l-138 -172zM508 395q0 -43 29.5 -63.5t70.5 -20.5q55 0 84 38t43 104q25 117 42.5 220t37.5 214q6 37 11 71.5t8 69.5q-2 41 -28 64.5t-67 23.5t-70.5 -24.5t-43.5 -65.5 q-10 -35 -21.5 -78t-17.5 -78q-16 -86 -30.5 -162.5t-29.5 -170.5q-6 -37 -11 -72t-7 -70z" />
<glyph unicode="&#xd3;" horiz-adv-x="1163" d="M138 352.5q-1 87.5 22 210.5q23 131 39 216t28.5 140.5t21.5 87t15 56.5q47 174 165 276.5t323 102.5q123 0 216 -37t150.5 -105.5t78 -165t-0.5 -212.5q-16 -90 -29.5 -181.5t-33.5 -179.5q-10 -45 -16.5 -74.5t-10.5 -51t-9 -41t-12 -44.5q-45 -174 -161.5 -268 t-339.5 -94q-154 0 -264.5 57t-151.5 152q-29 68 -30 155.5zM508 395q0 -43 29.5 -63.5t70.5 -20.5q55 0 84 38t43 104q25 117 42.5 220t37.5 214q6 37 11 71.5t8 69.5q-2 41 -28 64.5t-67 23.5t-70.5 -24.5t-43.5 -65.5q-10 -35 -21.5 -78t-17.5 -78q-16 -86 -30.5 -162.5 t-29.5 -170.5q-6 -37 -11 -72t-7 -70zM655 1649l449 270l121 -248l-480 -194z" />
<glyph unicode="&#xd4;" horiz-adv-x="1163" d="M138 352.5q-1 87.5 22 210.5q23 131 39 216t28.5 140.5t21.5 87t15 56.5q47 174 165 276.5t323 102.5q123 0 216 -37t150.5 -105.5t78 -165t-0.5 -212.5q-16 -90 -29.5 -181.5t-33.5 -179.5q-10 -45 -16.5 -74.5t-10.5 -51t-9 -41t-12 -44.5q-45 -174 -161.5 -268 t-339.5 -94q-154 0 -264.5 57t-151.5 152q-29 68 -30 155.5zM444 1608l334 288h226l225 -290l-135 -131l-244 178l-309 -176zM508 395q0 -43 29.5 -63.5t70.5 -20.5q55 0 84 38t43 104q25 117 42.5 220t37.5 214q6 37 11 71.5t8 69.5q-2 41 -28 64.5t-67 23.5t-70.5 -24.5 t-43.5 -65.5q-10 -35 -21.5 -78t-17.5 -78q-16 -86 -30.5 -162.5t-29.5 -170.5q-6 -37 -11 -72t-7 -70z" />
<glyph unicode="&#xd5;" horiz-adv-x="1163" d="M138 352.5q-1 87.5 22 210.5q23 131 39 216t28.5 140.5t21.5 87t15 56.5q47 174 165 276.5t323 102.5q123 0 216 -37t150.5 -105.5t78 -165t-0.5 -212.5q-16 -90 -29.5 -181.5t-33.5 -179.5q-10 -45 -16.5 -74.5t-10.5 -51t-9 -41t-12 -44.5q-45 -174 -161.5 -268 t-339.5 -94q-154 0 -264.5 57t-151.5 152q-29 68 -30 155.5zM446 1597q72 133 149 188.5t153 55.5q39 0 71.5 -13t60 -28.5t52 -28t51.5 -12.5q31 0 61.5 18.5t71.5 65.5l139 -86q-35 -70 -71.5 -116t-74.5 -73.5t-74.5 -39.5t-69.5 -12t-62 12t-56.5 27.5t-54 27.5 t-55.5 12q-27 0 -65.5 -17t-83.5 -71zM508 395q0 -43 29.5 -63.5t70.5 -20.5q55 0 84 38t43 104q25 117 42.5 220t37.5 214q6 37 11 71.5t8 69.5q-2 41 -28 64.5t-67 23.5t-70.5 -24.5t-43.5 -65.5q-10 -35 -21.5 -78t-17.5 -78q-16 -86 -30.5 -162.5t-29.5 -170.5 q-6 -37 -11 -72t-7 -70z" />
<glyph unicode="&#xd6;" horiz-adv-x="1163" d="M138 352.5q-1 87.5 22 210.5q23 131 39 216t28.5 140.5t21.5 87t15 56.5q47 174 165 276.5t323 102.5q123 0 216 -37t150.5 -105.5t78 -165t-0.5 -212.5q-16 -90 -29.5 -181.5t-33.5 -179.5q-10 -45 -16.5 -74.5t-10.5 -51t-9 -41t-12 -44.5q-45 -174 -161.5 -268 t-339.5 -94q-154 0 -264.5 57t-151.5 152q-29 68 -30 155.5zM455 1509l51 273h293l-51 -273h-293zM508 395q0 -43 29.5 -63.5t70.5 -20.5q55 0 84 38t43 104q25 117 42.5 220t37.5 214q6 37 11 71.5t8 69.5q-2 41 -28 64.5t-67 23.5t-70.5 -24.5t-43.5 -65.5 q-10 -35 -21.5 -78t-17.5 -78q-16 -86 -30.5 -162.5t-29.5 -170.5q-6 -37 -11 -72t-7 -70zM885 1509l51 273h293l-51 -273h-293z" />
<glyph unicode="&#xd8;" horiz-adv-x="1163" d="M72 49q27 33 51 65.5t51 67.5l-6 15q-29 68 -30 155.5t22 210.5q23 131 39 216t28.5 140.5t21.5 87t15 56.5q47 174 165 276.5t323 102.5q104 0 187 -28t142 -79l88 115q25 -18 49.5 -35.5t49.5 -34.5l-111 -139q35 -63 45 -144t-6 -175q-16 -90 -29.5 -181.5 t-33.5 -179.5q-10 -45 -16.5 -74.5t-10.5 -51t-9 -41t-12 -44.5q-45 -174 -161.5 -268t-339.5 -94q-104 0 -189.5 27.5t-144.5 74.5l-88 -110zM508 395q0 -43 29.5 -63.5t70.5 -20.5q55 0 84 38t43 104q18 88 32.5 168.5t29.5 162.5l-289 -364v-25zM545 653l289 367v8 q-2 41 -28 64.5t-67 23.5t-70.5 -24.5t-43.5 -65.5q-10 -35 -21.5 -78t-17.5 -78z" />
<glyph unicode="&#xd9;" horiz-adv-x="1181" d="M147 377v24q2 86 19 179l156 845h372l-180 -972q-2 -10 -3 -19.5t-1 -19.5q0 -51 26.5 -77t73.5 -26q57 0 92 42t46 104q4 23 8 44t8 44l162 880h377q-41 -217 -80 -432t-80 -432q-8 -47 -18.5 -90t-22.5 -88q-49 -178 -174 -285.5t-342 -107.5q-111 0 -194 28.5t-137 80 t-81 122t-27 156.5zM432 1710l193 244l391 -312l-137 -172z" />
<glyph unicode="&#xda;" horiz-adv-x="1181" d="M147 377v24q2 86 19 179l156 845h372l-180 -972q-2 -10 -3 -19.5t-1 -19.5q0 -51 26.5 -77t73.5 -26q57 0 92 42t46 104q4 23 8 44t8 44l162 880h377q-41 -217 -80 -432t-80 -432q-8 -47 -18.5 -90t-22.5 -88q-49 -178 -174 -285.5t-342 -107.5q-111 0 -194 28.5t-137 80 t-81 122t-27 156.5zM655 1649l449 270l121 -248l-480 -194z" />
<glyph unicode="&#xdb;" horiz-adv-x="1181" d="M147 377v24q2 86 19 179l156 845h372l-180 -972q-2 -10 -3 -19.5t-1 -19.5q0 -51 26.5 -77t73.5 -26q57 0 92 42t46 104q4 23 8 44t8 44l162 880h377q-41 -217 -80 -432t-80 -432q-8 -47 -18.5 -90t-22.5 -88q-49 -178 -174 -285.5t-342 -107.5q-111 0 -194 28.5t-137 80 t-81 122t-27 156.5zM455 1608l333 288h226l225 -290l-135 -131l-244 178l-309 -176z" />
<glyph unicode="&#xdc;" horiz-adv-x="1181" d="M147 377v24q2 86 19 179l156 845h372l-180 -972q-2 -10 -3 -19.5t-1 -19.5q0 -51 26.5 -77t73.5 -26q57 0 92 42t46 104q4 23 8 44t8 44l162 880h377q-41 -217 -80 -432t-80 -432q-8 -47 -18.5 -90t-22.5 -88q-49 -178 -174 -285.5t-342 -107.5q-111 0 -194 28.5t-137 80 t-81 122t-27 156.5zM463 1509l51 273h293l-51 -273h-293zM893 1509l51 273h293l-51 -273h-293z" />
<glyph unicode="&#xdd;" horiz-adv-x="1140" d="M242 1425h370l35 -268q8 -68 15.5 -126t9.5 -144h8l119 256l135 282h407l-522 -870l-104 -555h-375l100 541zM645 1649l449 270l120 -248l-479 -194z" />
<glyph unicode="&#xde;" horiz-adv-x="1120" d="M57 0l262 1425h375l-39 -217h138q190 0 291.5 -96t86.5 -313q-6 -113 -48 -203t-111.5 -153.5t-165.5 -97.5t-211 -34h-148l-57 -311h-373zM545 618h104q53 0 99.5 38t54.5 120q4 63 -22.5 93t-80.5 30h-104z" />
<glyph unicode="&#xdf;" horiz-adv-x="1050" d="M43 0l188 1016q4 29 11.5 56.5t13.5 53.5q20 78 61 143.5t98.5 114t131.5 75t164 26.5q98 0 170.5 -25.5t119 -68.5t69 -101.5t22.5 -126.5q0 -92 -38 -177t-124 -144q66 -27 91.5 -77t25.5 -128q0 -59 -10.5 -127t-29 -135.5t-44 -128t-56.5 -105.5q-53 -74 -129 -116.5 t-192 -42.5q-23 0 -54.5 1t-64.5 7l55 293q29 0 58.5 13t48.5 48q18 29 29.5 72t21.5 104q6 33 8 64.5t-6 58.5t-28.5 44.5t-63.5 21.5q10 59 21.5 119.5t23.5 119.5q27 0 47 15.5t34.5 41t20.5 57.5t6 62q0 74 -55 74q-37 0 -57.5 -26.5t-28.5 -71.5l-10 -51l-193 -1049 h-356z" />
<glyph unicode="&#xe0;" horiz-adv-x="1038" d="M86 223q0 68 7 143.5t20 141.5q20 100 50 195.5t78 169t117.5 117.5t167.5 44q18 0 45 -3t55.5 -14t54.5 -29.5t42 -49.5h8q4 20 7 39.5t7 38.5h355l-189 -1016h-364l12 68q-2 0 -4 2q-31 -29 -63.5 -45.5t-63.5 -24.5t-55.5 -11t-36.5 -3q-135 0 -192.5 64.5 t-57.5 172.5zM426 1546l260 125l186 -471l-196 -92zM465 385q0 -33 8 -63.5t49 -30.5q18 0 31.5 8t24.5 20q23 25 43 90.5t32 139.5q6 29 8.5 55.5t2.5 52.5q0 33 -12.5 54.5t-47.5 21.5q-16 0 -28.5 -9t-22.5 -19q-39 -47 -68 -177q-8 -37 -14 -73.5t-6 -69.5z" />
<glyph unicode="&#xe1;" horiz-adv-x="1038" d="M86 223q0 68 7 143.5t20 141.5q20 100 50 195.5t78 169t117.5 117.5t167.5 44q18 0 45 -3t55.5 -14t54.5 -29.5t42 -49.5h8q4 20 7 39.5t7 38.5h355l-189 -1016h-364l12 68q-2 0 -4 2q-31 -29 -63.5 -45.5t-63.5 -24.5t-55.5 -11t-36.5 -3q-135 0 -192.5 64.5 t-57.5 172.5zM465 385q0 -33 8 -63.5t49 -30.5q18 0 31.5 8t24.5 20q23 25 43 90.5t32 139.5q6 29 8.5 55.5t2.5 52.5q0 33 -12.5 54.5t-47.5 21.5q-16 0 -28.5 -9t-22.5 -19q-39 -47 -68 -177q-8 -37 -14 -73.5t-6 -69.5zM537 1190l274 442l244 -125l-346 -415z" />
<glyph unicode="&#xe2;" horiz-adv-x="1038" d="M86 223q0 68 7 143.5t20 141.5q20 100 50 195.5t78 169t117.5 117.5t167.5 44q18 0 45 -3t55.5 -14t54.5 -29.5t42 -49.5h8q4 20 7 39.5t7 38.5h355l-189 -1016h-364l12 68q-2 0 -4 2q-31 -29 -63.5 -45.5t-63.5 -24.5t-55.5 -11t-36.5 -3q-135 0 -192.5 64.5 t-57.5 172.5zM297 1196l348 338h227l222 -338l-152 -125l-223 215l-303 -213zM465 385q0 -33 8 -63.5t49 -30.5q18 0 31.5 8t24.5 20q23 25 43 90.5t32 139.5q6 29 8.5 55.5t2.5 52.5q0 33 -12.5 54.5t-47.5 21.5q-16 0 -28.5 -9t-22.5 -19q-39 -47 -68 -177 q-8 -37 -14 -73.5t-6 -69.5z" />
<glyph unicode="&#xe3;" horiz-adv-x="1038" d="M86 223q0 68 7 143.5t20 141.5q20 100 50 195.5t78 169t117.5 117.5t167.5 44q18 0 45 -3t55.5 -14t54.5 -29.5t42 -49.5h8q4 20 7 39.5t7 38.5h355l-189 -1016h-364l12 68q-2 0 -4 2q-31 -29 -63.5 -45.5t-63.5 -24.5t-55.5 -11t-36.5 -3q-135 0 -192.5 64.5 t-57.5 172.5zM311 1217q72 133 149 188t152 55q39 0 72 -13t60.5 -28.5t52 -28t51.5 -12.5q31 0 61.5 18.5t71.5 65.5l139 -86q-35 -70 -71.5 -116t-74.5 -73.5t-75 -39.5t-70 -12t-61.5 12t-56 27.5t-54 27.5t-55.5 12q-27 0 -65.5 -17t-83.5 -71zM465 385q0 -33 8 -63.5 t49 -30.5q18 0 31.5 8t24.5 20q23 25 43 90.5t32 139.5q6 29 8.5 55.5t2.5 52.5q0 33 -12.5 54.5t-47.5 21.5q-16 0 -28.5 -9t-22.5 -19q-39 -47 -68 -177q-8 -37 -14 -73.5t-6 -69.5z" />
<glyph unicode="&#xe4;" horiz-adv-x="1038" d="M86 223q0 68 7 143.5t20 141.5q20 100 50 195.5t78 169t117.5 117.5t167.5 44q18 0 45 -3t55.5 -14t54.5 -29.5t42 -49.5h8q4 20 7 39.5t7 38.5h355l-189 -1016h-364l12 68q-2 0 -4 2q-31 -29 -63.5 -45.5t-63.5 -24.5t-55.5 -11t-36.5 -3q-135 0 -192.5 64.5 t-57.5 172.5zM338 1137l51 272h291l-49 -272h-293zM465 385q0 -33 8 -63.5t49 -30.5q18 0 31.5 8t24.5 20q23 25 43 90.5t32 139.5q6 29 8.5 55.5t2.5 52.5q0 33 -12.5 54.5t-47.5 21.5q-16 0 -28.5 -9t-22.5 -19q-39 -47 -68 -177q-8 -37 -14 -73.5t-6 -69.5zM768 1137 l49 272h295l-51 -272h-293z" />
<glyph unicode="&#xe5;" horiz-adv-x="1038" d="M86 223q0 68 7 143.5t20 141.5q20 100 50 195.5t78 169t117.5 117.5t167.5 44q18 0 45 -3t55.5 -14t54.5 -29.5t42 -49.5h8q4 20 7 39.5t7 38.5h355l-189 -1016h-364l12 68q-2 0 -4 2q-31 -29 -63.5 -45.5t-63.5 -24.5t-55.5 -11t-36.5 -3q-135 0 -192.5 64.5 t-57.5 172.5zM465 385q0 -33 8 -63.5t49 -30.5q18 0 31.5 8t24.5 20q23 25 43 90.5t32 139.5q6 29 8.5 55.5t2.5 52.5q0 33 -12.5 54.5t-47.5 21.5q-16 0 -28.5 -9t-22.5 -19q-39 -47 -68 -177q-8 -37 -14 -73.5t-6 -69.5zM467 1307q0 61 24.5 113.5t65.5 90t94.5 59 t112.5 21.5q96 0 160.5 -59t64.5 -152q0 -66 -25.5 -119t-66.5 -89.5t-94 -56t-109 -19.5q-98 0 -162.5 59t-64.5 152zM647 1329q0 -29 18.5 -47t49.5 -18q37 0 66.5 28.5t29.5 63.5q0 27 -18.5 45t-49.5 18q-39 0 -67.5 -27.5t-28.5 -62.5z" />
<glyph unicode="&#xe6;" horiz-adv-x="1497" d="M61 297q14 143 129 232t310 89h139l8 41q6 31 -8 61t-72 30q-35 0 -75.5 -18.5t-83.5 -72.5l-213 183q80 117 194.5 158.5t253.5 41.5q72 0 138.5 -18t105.5 -53q104 70 260 69q98 0 168.5 -22.5t118 -60t70 -89t22.5 -106.5q0 -104 -41 -175t-110.5 -114t-161 -61.5 t-191.5 -18.5q-10 0 -21.5 1t-23.5 1q-12 -68 8.5 -95.5t79.5 -27.5q33 0 72 19.5t75 66.5l242 -149q-66 -121 -178.5 -174t-263.5 -53q-98 0 -176 29.5t-129 88.5q-82 -68 -169 -94t-198 -26q-150 0 -221.5 88t-57.5 229zM436 313q2 -18 14.5 -30.5t41.5 -12.5 q35 0 63.5 21.5t36.5 62.5l10 60h-74q-49 -2 -70.5 -31t-21.5 -70zM1014 618q92 0 132 20.5t40 59.5q0 23 -12.5 39.5t-43.5 16.5q-39 0 -71.5 -32t-44.5 -104z" />
<glyph unicode="&#xe7;" horiz-adv-x="935" d="M100 -442l70 145q41 -16 73.5 -22.5t61.5 -6.5q49 0 76 21.5t27 54.5q0 37 -52 37q-14 0 -24 -2l-74 61l84 156q-127 29 -183.5 111t-56.5 204q0 82 13 179q16 111 47 201.5t71 150.5q63 92 154.5 142t228.5 50q147 0 243.5 -68.5t113.5 -193.5l-271 -137 q-16 53 -39.5 72.5t-48.5 19.5q-57 0 -81.5 -43t-40.5 -106q-12 -47 -20.5 -97.5t-10.5 -95.5q-2 -41 13 -68.5t65 -27.5q27 0 61.5 20.5t69.5 73.5q59 -35 125.5 -71.5t126.5 -71.5q-63 -135 -177 -196.5t-262 -61.5h-10q-10 -16 -19.5 -33.5t-19.5 -34.5q55 -4 92 -19.5 t57.5 -37t29 -48t8.5 -53.5v-8q-2 -27 -17.5 -67.5t-50.5 -78.5t-94.5 -65.5t-149.5 -27.5q-33 0 -90 7t-119 36z" />
<glyph unicode="&#xe8;" horiz-adv-x="978" d="M100 326q0 41 4.5 85t10.5 83q14 100 46 198.5t89 176t146 124.5t220 47q98 0 169 -22.5t118 -60t69.5 -89t22.5 -106.5q0 -104 -41 -175t-110.5 -114t-160.5 -61.5t-191 -18.5q-10 0 -21.5 1t-24.5 1q-12 -68 8.5 -95.5t80.5 -27.5q33 0 71.5 19.5t75.5 66.5l242 -149 q-66 -121 -178.5 -174t-264.5 -53q-84 0 -153.5 22.5t-120.5 65.5t-79 107.5t-28 148.5zM369 1546l260 125l186 -471l-197 -92zM483 618q92 0 132 20.5t40 59.5q0 23 -12 39.5t-43 16.5q-39 0 -71.5 -32t-45.5 -104z" />
<glyph unicode="&#xe9;" horiz-adv-x="978" d="M100 326q0 41 4.5 85t10.5 83q14 100 46 198.5t89 176t146 124.5t220 47q98 0 169 -22.5t118 -60t69.5 -89t22.5 -106.5q0 -104 -41 -175t-110.5 -114t-160.5 -61.5t-191 -18.5q-10 0 -21.5 1t-24.5 1q-12 -68 8.5 -95.5t80.5 -27.5q33 0 71.5 19.5t75.5 66.5l242 -149 q-66 -121 -178.5 -174t-264.5 -53q-84 0 -153.5 22.5t-120.5 65.5t-79 107.5t-28 148.5zM483 618q92 0 132 20.5t40 59.5q0 23 -12 39.5t-43 16.5q-39 0 -71.5 -32t-45.5 -104zM516 1190l275 442l243 -125l-346 -415z" />
<glyph unicode="&#xea;" horiz-adv-x="978" d="M100 326q0 41 4.5 85t10.5 83q14 100 46 198.5t89 176t146 124.5t220 47q98 0 169 -22.5t118 -60t69.5 -89t22.5 -106.5q0 -104 -41 -175t-110.5 -114t-160.5 -61.5t-191 -18.5q-10 0 -21.5 1t-24.5 1q-12 -68 8.5 -95.5t80.5 -27.5q33 0 71.5 19.5t75.5 66.5l242 -149 q-66 -121 -178.5 -174t-264.5 -53q-84 0 -153.5 22.5t-120.5 65.5t-79 107.5t-28 148.5zM264 1196l348 338h228l221 -338l-152 -125l-223 215l-303 -213zM483 618q92 0 132 20.5t40 59.5q0 23 -12 39.5t-43 16.5q-39 0 -71.5 -32t-45.5 -104z" />
<glyph unicode="&#xeb;" horiz-adv-x="978" d="M100 326q0 41 4.5 85t10.5 83q14 100 46 198.5t89 176t146 124.5t220 47q98 0 169 -22.5t118 -60t69.5 -89t22.5 -106.5q0 -104 -41 -175t-110.5 -114t-160.5 -61.5t-191 -18.5q-10 0 -21.5 1t-24.5 1q-12 -68 8.5 -95.5t80.5 -27.5q33 0 71.5 19.5t75.5 66.5l242 -149 q-66 -121 -178.5 -174t-264.5 -53q-84 0 -153.5 22.5t-120.5 65.5t-79 107.5t-28 148.5zM295 1137l51 272h291l-49 -272h-293zM483 618q92 0 132 20.5t40 59.5q0 23 -12 39.5t-43 16.5q-39 0 -71.5 -32t-45.5 -104zM725 1137l49 272h295l-51 -272h-293z" />
<glyph unicode="&#xec;" horiz-adv-x="602" d="M90 0l189 1018h360l-188 -1018h-361zM156 1546l260 125l186 -471l-196 -92z" />
<glyph unicode="&#xed;" horiz-adv-x="581" d="M70 0l188 1018h360l-188 -1018h-360zM324 1190l274 442l244 -125l-346 -415z" />
<glyph unicode="&#xee;" horiz-adv-x="700" d="M131 0l188 1018h361l-188 -1018h-361zM131 1196l348 338h228l221 -338l-152 -125l-223 215l-303 -213z" />
<glyph unicode="&#xef;" horiz-adv-x="745" d="M152 0l188 1018h360l-188 -1018h-360zM176 1137l51 272h291l-49 -272h-293zM606 1137l49 272h295l-51 -272h-293z" />
<glyph unicode="&#xf0;" horiz-adv-x="1052" d="M102 346q0 41 4.5 86t10.5 74q16 86 41.5 155.5t54.5 116.5q55 88 139 139.5t211 51.5q41 0 98.5 -10.5t104.5 -38.5q8 35 8 75q-4 53 -24 97l-93 -80l-94 114l80 72q-76 41 -188 53l69 279q238 -14 371 -109q57 53 119 107l106 -117q-29 -27 -58.5 -51.5t-57.5 -48.5 q47 -72 66.5 -161t19.5 -198q0 -156 -26 -326.5t-85 -318.5q-57 -152 -175 -236.5t-292 -84.5q-109 0 -185.5 27.5t-126.5 75.5t-74 113.5t-24 143.5zM464 360.5q1 -18.5 6 -35t16.5 -26.5t31.5 -10q16 0 29.5 8t23.5 18q14 16 27.5 55.5t24.5 92.5q10 43 15 82t5 57 q0 27 -9 54.5t-46 27.5q-53 0 -73.5 -58.5t-37.5 -138.5l-12 -92q-2 -16 -1 -34.5z" />
<glyph unicode="&#xf1;" horiz-adv-x="1050" d="M45 0l186 1018h359l-23 -119l8 -2q35 41 73 68.5t75 44t68.5 23.5t54.5 7q78 0 126 -24.5t70.5 -68.5t24.5 -105.5t-10 -134.5l-127 -707h-363l107 592q10 49 -2.5 77.5t-55.5 28.5q-25 0 -42 -13t-29.5 -33.5t-20.5 -45t-12 -45.5l-104 -561h-363zM307 1229 q72 133 148.5 188.5t152.5 55.5q39 0 72 -13.5t60.5 -29t52 -27.5t51.5 -12q31 0 61.5 18t71.5 66l139 -86q-35 -70 -71.5 -116t-74.5 -74t-75 -40t-70 -12t-61.5 12t-56 27.5t-54 28t-55.5 12.5q-27 0 -65.5 -17.5t-83.5 -70.5z" />
<glyph unicode="&#xf2;" horiz-adv-x="1019" d="M102 342q0 41 5.5 84t11.5 84q18 104 51 195.5t88 160.5q57 76 145.5 126t229.5 50q104 0 178 -26.5t122 -73.5t69.5 -114.5t21.5 -147.5q0 -53 -7 -113.5t-21.5 -121t-33 -115t-40.5 -92.5q-35 -72 -79 -121t-96.5 -78t-114 -41t-128.5 -12q-215 0 -308.5 96t-93.5 260z M397 1546l260 125l187 -471l-197 -92zM461 375q0 -29 9 -56.5t44 -27.5q31 0 51.5 17.5t35.5 46t24.5 65.5t17.5 76q10 47 15.5 89t5.5 77q0 33 -11.5 54t-48.5 21q-31 0 -55 -28q-39 -47 -70 -191q-18 -86 -18 -143z" />
<glyph unicode="&#xf3;" horiz-adv-x="1019" d="M102 342q0 41 5.5 84t11.5 84q18 104 51 195.5t88 160.5q57 76 145.5 126t229.5 50q104 0 178 -26.5t122 -73.5t69.5 -114.5t21.5 -147.5q0 -53 -7 -113.5t-21.5 -121t-33 -115t-40.5 -92.5q-35 -72 -79 -121t-96.5 -78t-114 -41t-128.5 -12q-215 0 -308.5 96t-93.5 260z M461 375q0 -29 9 -56.5t44 -27.5q31 0 51.5 17.5t35.5 46t24.5 65.5t17.5 76q10 47 15.5 89t5.5 77q0 33 -11.5 54t-48.5 21q-31 0 -55 -28q-39 -47 -70 -191q-18 -86 -18 -143zM549 1190l274 442l244 -125l-346 -415z" />
<glyph unicode="&#xf4;" horiz-adv-x="1019" d="M102 342q0 41 5.5 84t11.5 84q18 104 51 195.5t88 160.5q57 76 145.5 126t229.5 50q104 0 178 -26.5t122 -73.5t69.5 -114.5t21.5 -147.5q0 -53 -7 -113.5t-21.5 -121t-33 -115t-40.5 -92.5q-35 -72 -79 -121t-96.5 -78t-114 -41t-128.5 -12q-215 0 -308.5 96t-93.5 260z M279 1196l348 338h227l221 -338l-151 -125l-224 215l-303 -213zM461 375q0 -29 9 -56.5t44 -27.5q31 0 51.5 17.5t35.5 46t24.5 65.5t17.5 76q10 47 15.5 89t5.5 77q0 33 -11.5 54t-48.5 21q-31 0 -55 -28q-39 -47 -70 -191q-18 -86 -18 -143z" />
<glyph unicode="&#xf5;" horiz-adv-x="1019" d="M102 342q0 41 5.5 84t11.5 84q18 104 51 195.5t88 160.5q57 76 145.5 126t229.5 50q104 0 178 -26.5t122 -73.5t69.5 -114.5t21.5 -147.5q0 -53 -7 -113.5t-21.5 -121t-33 -115t-40.5 -92.5q-35 -72 -79 -121t-96.5 -78t-114 -41t-128.5 -12q-215 0 -308.5 96t-93.5 260z M287 1229q72 133 148.5 188.5t152.5 55.5q39 0 71.5 -13.5t60.5 -29t52.5 -27.5t50.5 -12q31 0 61.5 18t71.5 66l140 -86q-35 -70 -72 -116t-75 -74t-74.5 -40t-69.5 -12t-61.5 12t-56.5 27.5t-54.5 28t-54.5 12.5q-27 0 -66 -17.5t-84 -70.5zM461 375q0 -29 9 -56.5 t44 -27.5q31 0 51.5 17.5t35.5 46t24.5 65.5t17.5 76q10 47 15.5 89t5.5 77q0 33 -11.5 54t-48.5 21q-31 0 -55 -28q-39 -47 -70 -191q-18 -86 -18 -143z" />
<glyph unicode="&#xf6;" horiz-adv-x="1019" d="M102 342q0 41 5.5 84t11.5 84q18 104 51 195.5t88 160.5q57 76 145.5 126t229.5 50q104 0 178 -26.5t122 -73.5t69.5 -114.5t21.5 -147.5q0 -53 -7 -113.5t-21.5 -121t-33 -115t-40.5 -92.5q-35 -72 -79 -121t-96.5 -78t-114 -41t-128.5 -12q-215 0 -308.5 96t-93.5 260z M322 1137l51 272h291l-50 -272h-292zM461 375q0 -29 9 -56.5t44 -27.5q31 0 51.5 17.5t35.5 46t24.5 65.5t17.5 76q10 47 15.5 89t5.5 77q0 33 -11.5 54t-48.5 21q-31 0 -55 -28q-39 -47 -70 -191q-18 -86 -18 -143zM752 1137l49 272h295l-52 -272h-292z" />
<glyph unicode="&#xf7;" d="M129 471l51 268h916l-49 -268h-918zM348 168q0 45 19.5 86t51.5 72.5t73 50t86 18.5q72 0 116.5 -45t44.5 -110q0 -47 -20.5 -88t-52 -73t-73.5 -50.5t-85 -18.5q-72 0 -116 46t-44 112zM494 954q0 45 19 86t51 73t74 50.5t85 18.5q72 0 117 -45t45 -113q0 -45 -19.5 -86 t-52.5 -71.5t-75 -49t-85 -18.5q-72 0 -115.5 45t-43.5 110z" />
<glyph unicode="&#xf8;" horiz-adv-x="1019" d="M49 43l96 102q-43 82 -43 197q0 41 5.5 84t11.5 84q18 104 51 195.5t88 160.5q57 76 145.5 126t229.5 50q94 0 163.5 -21.5t116.5 -59.5l80 83l72 -67l-90 -92q49 -86 49 -205q0 -53 -7 -113.5t-21.5 -121t-33 -115t-40.5 -92.5q-35 -72 -79 -121t-96.5 -78t-114 -41 t-128.5 -12q-104 0 -177 22.5t-122 65.5q-23 -25 -45.5 -49.5t-44.5 -47.5zM463 342q4 -23 14 -37t37 -14q31 0 51.5 17.5t35.5 46t24.5 65.5t17.5 76l8 47q-47 -49 -94 -99.5t-94 -101.5zM473 494l189 198q-11 45 -58 45q-31 0 -55 -28q-39 -47 -70 -191z" />
<glyph unicode="&#xf9;" horiz-adv-x="1050" d="M84 170q-2 59 10 133l133 715h363l-111 -590q-8 -49 3.5 -77.5t54.5 -28.5q23 0 41 13t31.5 32.5t22.5 43t13 44.5l105 563h362l-188 -1018h-359l27 123l-6 2q-35 -45 -74 -73.5t-76 -44t-69.5 -20.5t-53.5 -5q-80 0 -129 22.5t-73.5 64.5t-26.5 101zM377 1546l260 125 l186 -471l-196 -92z" />
<glyph unicode="&#xfa;" horiz-adv-x="1050" d="M84 170q-2 59 10 133l133 715h363l-111 -590q-8 -49 3.5 -77.5t54.5 -28.5q23 0 41 13t31.5 32.5t22.5 43t13 44.5l105 563h362l-188 -1018h-359l27 123l-6 2q-35 -45 -74 -73.5t-76 -44t-69.5 -20.5t-53.5 -5q-80 0 -129 22.5t-73.5 64.5t-26.5 101zM535 1190l274 442 l244 -125l-346 -415z" />
<glyph unicode="&#xfb;" horiz-adv-x="1050" d="M84 170q-2 59 10 133l133 715h363l-111 -590q-8 -49 3.5 -77.5t54.5 -28.5q23 0 41 13t31.5 32.5t22.5 43t13 44.5l105 563h362l-188 -1018h-359l27 123l-6 2q-35 -45 -74 -73.5t-76 -44t-69.5 -20.5t-53.5 -5q-80 0 -129 22.5t-73.5 64.5t-26.5 101zM309 1196l348 338 h228l221 -338l-152 -125l-223 215l-303 -213z" />
<glyph unicode="&#xfc;" horiz-adv-x="1050" d="M84 170q-2 59 10 133l133 715h363l-111 -590q-8 -49 3.5 -77.5t54.5 -28.5q23 0 41 13t31.5 32.5t22.5 43t13 44.5l105 563h362l-188 -1018h-359l27 123l-6 2q-35 -45 -74 -73.5t-76 -44t-69.5 -20.5t-53.5 -5q-80 0 -129 22.5t-73.5 64.5t-26.5 101zM334 1137l51 272 h291l-49 -272h-293zM764 1137l49 272h295l-51 -272h-293z" />
<glyph unicode="&#xfd;" horiz-adv-x="1038" d="M-41 -143q115 12 186.5 48t128.5 111l-129 1002h375l12 -283q2 -37 2.5 -87t-2 -103t-5.5 -103.5t-7 -85.5h10q29 57 60 133t60.5 162t58 179.5t57.5 187.5h381q-55 -152 -113.5 -302.5t-122 -293.5t-134 -273.5t-150.5 -240.5q-49 -68 -111.5 -132.5t-142.5 -114.5 t-178.5 -80t-217.5 -30zM512 1190l274 442l244 -125l-346 -415z" />
<glyph unicode="&#xfe;" horiz-adv-x="1038" d="M-29 -406l334 1833h354l-88 -495h9q27 31 59.5 49t64 29.5t59.5 15.5t46 4q129 0 189.5 -66.5t60.5 -185.5q0 -61 -8.5 -144t-24.5 -168t-39.5 -163t-52.5 -131q-43 -80 -118 -136t-195 -56q-41 0 -100.5 13t-98.5 56q-2 0 -4 -2l-84 -453h-363zM481 362q0 -31 11.5 -52 t46.5 -21q27 0 48 20.5t36.5 53t25.5 75.5t17 86q6 35 10 66t4 63q0 29 -12.5 49.5t-42.5 20.5q-49 0 -76 -54.5t-45 -140.5q-23 -113 -23 -166z" />
<glyph unicode="&#xff;" horiz-adv-x="1038" d="M-41 -143q115 12 186.5 48t128.5 111l-129 1002h375l12 -283q2 -37 2.5 -87t-2 -103t-5.5 -103.5t-7 -85.5h10q29 57 60 133t60.5 162t58 179.5t57.5 187.5h381q-55 -152 -113.5 -302.5t-122 -293.5t-134 -273.5t-150.5 -240.5q-49 -68 -111.5 -132.5t-142.5 -114.5 t-178.5 -80t-217.5 -30zM313 1137l52 272h290l-49 -272h-293zM743 1137l50 272h294l-51 -272h-293z" />
<glyph unicode="&#x131;" horiz-adv-x="581" d="M70 0l188 1018h360l-188 -1018h-360z" />
<glyph unicode="&#x152;" horiz-adv-x="1501" d="M133 356q0 61 9.5 121t19.5 121l45 231q14 88 37 181q25 102 64.5 182t101 135t149.5 84t211 29q45 0 102.5 -4t131.5 -11h632l-57 -319h-432q-10 -55 -20.5 -110.5t-20.5 -108.5h364l-57 -320h-364l-48 -248h447l-57 -319h-723q-61 -12 -133 -12q-106 0 -182.5 26.5 t-125.5 75.5t-71.5 116.5t-22.5 149.5zM510 403q0 -43 18.5 -67.5t65.5 -24.5q20 0 31 4l147 793q-21 4 -29 4q-41 0 -67.5 -21.5t-43 -53t-24.5 -69.5t-14 -71q-18 -92 -35.5 -185.5t-34.5 -185.5q-6 -33 -10 -63.5t-4 -59.5z" />
<glyph unicode="&#x153;" horiz-adv-x="1511" d="M102 342q0 41 5.5 84t11.5 84q18 104 50 199.5t79 156.5q57 74 143 125t227 51q90 0 165 -25.5t120 -70.5q53 45 116.5 69.5t147.5 24.5q98 0 169 -22.5t118 -60t69.5 -89t22.5 -106.5q0 -104 -41 -175t-110.5 -114t-160.5 -61.5t-192 -18.5q-10 0 -21 1t-24 1 q-12 -68 8.5 -95.5t79.5 -27.5q33 0 72 19.5t76 66.5l242 -149q-66 -121 -178.5 -174t-264.5 -53q-78 0 -146.5 23.5t-111.5 70.5q-117 -90 -270 -90q-215 0 -308.5 96t-93.5 260zM461 375q0 -29 9 -56.5t44 -27.5q31 0 51.5 17.5t35.5 46t24.5 65.5t17.5 76q10 47 15.5 89 t5.5 77q0 33 -11.5 54t-48.5 21q-31 0 -55 -28q-39 -47 -70 -191q-18 -86 -18 -143zM1034 618q92 0 132 20.5t40 59.5q0 23 -12 39.5t-43 16.5q-39 0 -71.5 -32t-45.5 -104z" />
<glyph unicode="&#x178;" horiz-adv-x="1140" d="M242 1425h370l35 -268q8 -68 15.5 -126t9.5 -144h8l119 256l135 282h407l-522 -870l-104 -555h-375l100 541zM446 1509l52 273h293l-52 -273h-293zM877 1509l51 273h293l-52 -273h-292z" />
<glyph unicode="&#x192;" horiz-adv-x="1097" d="M0 -133l82 270q33 -4 50.5 -8t41.5 -4q55 0 86 35t47 131q2 12 9.5 61t15.5 106.5t15 107.5t9 63h-125v270h170q14 80 36 173t68 174t129 135.5t222 54.5q53 0 116.5 -10.5t121.5 -32.5l-68 -289q-31 10 -60.5 14t-45.5 4q-33 0 -55.5 -9t-40 -34.5t-30 -68.5t-24.5 -111 h158v-270h-195q-12 -98 -23.5 -196.5t-28.5 -189.5t-46 -170t-76 -137.5t-117.5 -91t-173.5 -32.5q-51 0 -120.5 10t-147.5 45z" />
<glyph unicode="&#x2c6;" horiz-adv-x="931" d="M248 1196l348 338h227l221 -338l-151 -125l-223 215l-303 -213z" />
<glyph unicode="&#x2c7;" horiz-adv-x="937" d="M293 1438l143 121l226 -211l299 211l126 -121l-344 -338h-227z" />
<glyph unicode="&#x2d8;" horiz-adv-x="1036" d="M410 1458h219q-8 -59 16.5 -104t85.5 -45q66 0 107 47t55 102h227q-10 -55 -38.5 -118.5t-78 -117t-122 -89t-166.5 -35.5q-98 0 -160.5 35.5t-97.5 90t-45.5 117t-1.5 117.5z" />
<glyph unicode="&#x2d9;" horiz-adv-x="743" d="M369 1165l53 285h348l-53 -285h-348z" />
<glyph unicode="&#x2da;" horiz-adv-x="923" d="M422 1307q0 61 24.5 113.5t65.5 90t94.5 59t112.5 21.5q96 0 160.5 -59t64.5 -152q0 -66 -25.5 -119t-66.5 -89.5t-94 -56t-109 -19.5q-98 0 -162.5 59t-64.5 152zM602 1329q0 -29 18.5 -47t49.5 -18q37 0 66.5 28.5t29.5 63.5q0 27 -18.5 45t-49.5 18q-39 0 -67.5 -27.5 t-28.5 -62.5z" />
<glyph unicode="&#x2db;" horiz-adv-x="686" d="M164 -274q0 20 7 54t27.5 76t55.5 90t90 95h162l2 -6q-66 -80 -87.5 -141.5t-21.5 -81.5q0 -35 25 -48.5t59 -13.5q51 0 113 19l18 -156q-57 -29 -123.5 -43t-119.5 -14q-96 0 -151.5 45t-55.5 125z" />
<glyph unicode="&#x2dc;" horiz-adv-x="937" d="M283 1229q72 133 148.5 188.5t152.5 55.5q39 0 71.5 -13.5t60 -29t52.5 -27.5t51 -12q31 0 61.5 18t71.5 66l140 -86q-35 -70 -72 -116t-75 -74t-74.5 -40t-69.5 -12t-61.5 12t-56.5 27.5t-54.5 28t-55.5 12.5q-27 0 -65.5 -17.5t-83.5 -70.5z" />
<glyph unicode="&#x2dd;" horiz-adv-x="1071" d="M420 1171l276 437l240 -127l-344 -406zM776 1133l275 438l239 -129l-344 -404z" />
<glyph unicode="&#x3a9;" horiz-adv-x="1204" d="M51 0q14 78 27.5 157t30.5 156h120q-31 27 -44 69t-13 93q0 29 5 61.5t9 65.5l47 275q18 115 52 210q53 170 183 261.5t320 91.5q104 0 185.5 -29t138.5 -80t87 -122.5t30 -157.5q0 -25 -4 -57.5t-8 -59.5q-14 -86 -26.5 -160t-29.5 -160q-10 -55 -24 -110 q-16 -59 -44 -108.5t-77 -82.5h112q-14 -78 -27.5 -156.5t-29.5 -156.5h-477q14 84 29.5 166t29.5 166q23 10 39.5 27.5t26.5 39.5q43 86 61 189l60 325q4 23 7 44.5t3 43.5q0 47 -20.5 81t-73.5 34q-47 0 -75 -25.5t-44 -70.5q-20 -53 -29 -107q-16 -94 -33.5 -187 t-35.5 -189q-8 -47 -13 -99q0 -80 58 -106l-62 -332h-471z" />
<glyph unicode="&#x3c0;" horiz-adv-x="1054" d="M45 0l186 1018h885l-186 -1018h-363l135 739h-157l-137 -739h-363z" />
<glyph unicode="&#x401;" horiz-adv-x="1062" d="M59 0l263 1425h872l-59 -319h-494l-41 -219h434l-59 -320h-434l-45 -245h516l-58 -322h-895zM410 1509l51 273h293l-52 -273h-292zM840 1509l51 273h293l-51 -273h-293z" />
<glyph unicode="&#x402;" horiz-adv-x="1331" d="M176 1110l57 315h1043l-57 -315h-394l-41 -223h2q59 35 124 56.5t122 21.5q82 0 140.5 -26t96.5 -71t55 -106.5t17 -132.5q0 -158 -25.5 -292t-91 -234.5t-181 -157t-293.5 -56.5h-26.5t-29.5 2l56 304q111 10 156.5 93t45.5 220q0 25 -3 46t-12 37.5t-27.5 27 t-49.5 10.5q-29 0 -63.5 -13.5t-69.5 -40.5l-106 -575h-375l205 1110h-275z" />
<glyph unicode="&#x403;" horiz-adv-x="1028" d="M59 0l263 1425h892l-57 -315h-516l-205 -1110h-377zM578 1649l448 270l121 -248l-479 -194z" />
<glyph unicode="&#x404;" horiz-adv-x="1097" d="M135 371q0 39 4 77.5t13 79.5l61 334q12 59 26.5 117.5t32.5 116.5q25 76 65 140t98.5 109.5t136.5 71t180 25.5q111 0 191.5 -30t133.5 -82t80 -123.5t29 -155.5l-348 -88v14q0 78 -28 109.5t-69 31.5q-47 0 -73.5 -25.5t-42.5 -62.5q-8 -25 -15.5 -51.5t-11.5 -54.5 l-10 -50h295l-56 -299h-295l-22 -133q-2 -10 -3 -19t-1 -20q0 -41 22.5 -67.5t75.5 -26.5q45 0 81 36t63 122l362 -84q-51 -186 -181 -290.5t-341 -104.5q-45 0 -76 8q-180 16 -278.5 115.5t-98.5 259.5z" />
<glyph unicode="&#x405;" horiz-adv-x="1103" d="M59 266l279 203q41 -78 97.5 -114t115.5 -36q72 0 114 35t42 86q0 47 -46.5 75t-113.5 58q-143 63 -232.5 153.5t-89.5 223.5q0 113 39 203t106.5 152.5t161 95.5t201.5 33q147 0 250.5 -54.5t169.5 -152.5l-256 -242q-41 68 -93.5 94.5t-101.5 26.5q-47 0 -80.5 -26.5 t-33.5 -67.5q0 -47 50 -78t130 -68q168 -82 249 -171t81 -220q0 -121 -44 -212t-119 -151.5t-175.5 -91t-212.5 -30.5q-180 0 -303 80t-185 196z" />
<glyph unicode="&#x406;" horiz-adv-x="618" d="M80 0l262 1425h377l-262 -1425h-377z" />
<glyph unicode="&#x407;" horiz-adv-x="618" d="M80 0l262 1425h377l-262 -1425h-377zM193 1503l51 273h291l-50 -273h-292zM623 1503l49 273h295l-52 -273h-292z" />
<glyph unicode="&#x408;" horiz-adv-x="997" d="M-4 197l266 237q47 -63 90 -82.5t78 -19.5q53 0 85 33.5t42 91.5l178 968h373l-182 -991q-43 -229 -164 -336.5t-338 -107.5q-117 0 -230.5 43t-197.5 164z" />
<glyph unicode="&#x409;" horiz-adv-x="1771" d="M8 281q72 20 123 47.5t87 67.5t61.5 95.5t44.5 133.5q6 23 22 107.5t39 200.5t46.5 247t45.5 245h869l-99 -536h142q104 0 177.5 -25.5t121 -72t69 -111t21.5 -143.5q0 -137 -43 -238.5t-116 -167t-170 -98.5t-208 -33h-532l204 1110h-137q-14 -80 -28.5 -160t-30.5 -162 q-35 -188 -77 -328.5t-112.5 -239.5t-180 -161.5t-279.5 -93.5q-16 78 -30.5 157t-29.5 159zM1141 313h112q59 0 101.5 42t42.5 134q0 41 -24.5 67t-76.5 26h-106z" />
<glyph unicode="&#x40a;" horiz-adv-x="1683" d="M59 0l263 1425h376l-98 -536h178l99 536h376l-98 -536h139q205 0 298.5 -97.5t93.5 -254.5q0 -137 -43.5 -238.5t-117 -167t-171 -98.5t-207.5 -33h-533q29 145 54.5 288.5t52.5 291.5h-178q-27 -147 -52.5 -291t-54.5 -289h-377zM1047 313h112q61 0 101 40t45 136 q0 41 -25 67t-76 26h-106z" />
<glyph unicode="&#x40b;" horiz-adv-x="1318" d="M178 1126l55 299h1031l-54 -299h-391l-43 -231h4q66 35 140.5 50.5t136.5 15.5q152 0 216 -67t64 -171q0 -37 -4 -77t-12 -81l-104 -565h-373q23 123 45 246t45 246q6 27 6 49q0 39 -19.5 61.5t-72.5 22.5q-29 0 -64.5 -13.5t-66.5 -38.5l-105 -573h-374l206 1126h-266z " />
<glyph unicode="&#x40c;" horiz-adv-x="1202" d="M59 0l265 1427h374l-104 -555h33q31 0 55.5 7.5t46 27t43 52t43.5 85.5l164 377h387q-47 -109 -92 -213t-90 -213q-43 -102 -107.5 -165.5t-130.5 -90.5q-2 -2 -2 -4q74 -29 111 -93t43 -169l26 -473h-381l-18 385q-4 57 -11 93t-23.5 54.5t-43 24.5t-65.5 6h-43 l-105 -563h-375zM688 1649l449 270l120 -248l-479 -194z" />
<glyph unicode="&#x40e;" horiz-adv-x="1114" d="M139 -29q12 82 22.5 161t22.5 161h60q31 0 71.5 10t65.5 41l25 31q-41 268 -85.5 525t-84.5 523h391l22 -288l15 -283h8q20 49 48 112.5t75 165.5q27 66 56.5 138.5t63.5 156.5h402l-516 -1071q-51 -106 -101.5 -179t-109 -118t-132 -65.5t-173.5 -20.5h-146zM496 1798 h219q-8 -59 16.5 -104t85.5 -45q66 0 107 47t55 102h227q-10 -55 -38.5 -118.5t-78 -117t-122 -89t-166.5 -35.5q-98 0 -160.5 35.5t-97.5 90t-45.5 117t-1.5 117.5z" />
<glyph unicode="&#x40f;" horiz-adv-x="1189" d="M18 0l267 1425h377l-207 -1106h239l207 1106h375l-268 -1425h-330l-72 -358h-311l70 358h-347z" />
<glyph unicode="&#x410;" horiz-adv-x="1236" d="M-25 0l654 1425h422l127 -1425h-383l-11 252h-319l-98 -252h-392zM592 559h178l-2 166v262h-12l-103 -268z" />
<glyph unicode="&#x411;" horiz-adv-x="1132" d="M59 0l263 1425h837l-55 -303h-463l-43 -233h139q104 0 178 -25.5t122 -72t69.5 -111t21.5 -143.5q0 -137 -43 -238.5t-116.5 -167t-171 -98.5t-207.5 -33h-531zM489 313h113q59 0 102.5 43t43.5 133q0 41 -26 67t-75 26h-106z" />
<glyph unicode="&#x412;" horiz-adv-x="1167" d="M59 0l263 1425h518q193 0 285 -85t92 -244q-2 -41 -13.5 -93.5t-37 -102.5t-69.5 -94t-112 -67q0 -2 -1 -4t-1 -4q84 -33 113.5 -99.5t29.5 -139.5q0 -143 -49 -237.5t-130 -151t-187.5 -80t-222.5 -23.5h-478zM489 309h86q76 0 123 52.5t47 127.5q0 100 -106 101h-98 q-12 -72 -24.5 -140.5t-27.5 -140.5zM596 885h80q63 0 107 32.5t44 102.5q0 96 -102 96h-86z" />
<glyph unicode="&#x413;" horiz-adv-x="1028" d="M59 0l263 1425h892l-57 -315h-516l-205 -1110h-377z" />
<glyph unicode="&#x414;" horiz-adv-x="1374" d="M-109 -313l107 604l111 22q51 25 89 72t65.5 114.5t50 154.5t46.5 192l132 579h884q-51 -281 -102 -558t-105 -558h138q-29 -158 -57.5 -311.5t-57.5 -310.5h-313l57 313h-676l-59 -313h-310zM528 313h275l149 820h-188l-80 -353q-23 -98 -41 -171.5t-36.5 -128 t-38 -94.5t-40.5 -73z" />
<glyph unicode="&#x415;" horiz-adv-x="1062" d="M59 0l263 1425h872l-59 -319h-494l-41 -219h434l-59 -320h-434l-45 -245h516l-58 -322h-895z" />
<glyph unicode="&#x416;" horiz-adv-x="1785" d="M-4 0l199 473q27 63 54 107.5t58 75t65 49t70 30.5q-39 18 -63.5 46t-39.5 62t-22.5 72.5t-11.5 79.5l-26 426h372l25 -385q2 -53 13 -84.5t27.5 -49t39 -24t47.5 -6.5h22l105 555h375l-105 -555h23q25 0 47 6.5t42.5 24t41 49t45.5 84.5l164 385h391l-182 -426 q-43 -102 -108 -165.5t-132 -90.5q0 -2 -2 -4q76 -29 112.5 -93t40.5 -169l29 -473h-381l-18 395q-2 55 -10.5 88t-23.5 50.5t-38.5 23.5t-60.5 6h-35l-105 -563h-374l104 563h-29q-37 0 -63.5 -6t-48 -24.5t-41 -51t-43.5 -86.5l-164 -395h-385z" />
<glyph unicode="&#x417;" horiz-adv-x="1044" d="M45 336l328 113q4 -68 38.5 -106t92.5 -38q66 0 104.5 48t38.5 130q0 55 -36 83t-87 28h-84l49 272h97q66 0 115 35t49 115q0 35 -22.5 68.5t-80.5 33.5q-53 0 -100 -35.5t-76 -101.5l-295 125q72 170 207 250t315 80q201 0 307.5 -95.5t106.5 -248.5q0 -35 -8 -83 t-30.5 -98.5t-63.5 -96.5t-107 -75l-2 -8q80 -49 107.5 -132t17.5 -171q-12 -115 -61.5 -198t-123 -136t-165.5 -78.5t-193 -25.5q-195 0 -308.5 93t-129.5 253z" />
<glyph unicode="&#x418;" horiz-adv-x="1251" d="M59 0l263 1425h370l-129 -708h8q47 66 94.5 131t92.5 131q10 14 32.5 48t52 79t62.5 95t62.5 95t52 80t33.5 49h321l-262 -1425h-373l119 668h-8q-41 -59 -75 -110.5t-77 -111.5q-76 -113 -156.5 -224t-156.5 -222h-326z" />
<glyph unicode="&#x419;" horiz-adv-x="1251" d="M59 0l263 1425h370l-129 -708h8q47 66 94.5 131t92.5 131q10 14 32.5 48t52 79t62.5 95t62.5 95t52 80t33.5 49h321l-262 -1425h-373l119 668h-8q-41 -59 -75 -110.5t-77 -111.5q-76 -113 -156.5 -224t-156.5 -222h-326zM578 1819h219q-8 -59 16.5 -104.5t85.5 -45.5 q66 0 107 47t55 103h227q-10 -55 -38.5 -119t-78 -117t-122 -89t-166.5 -36q-98 0 -161 36t-97.5 90t-45 116.5t-1.5 118.5z" />
<glyph unicode="&#x41a;" horiz-adv-x="1200" d="M59 0l265 1427h374l-104 -555h33q31 0 55.5 7.5t46 27t43 52t43.5 85.5l164 377h387q-47 -109 -92 -213t-90 -213q-43 -102 -107.5 -165.5t-130.5 -90.5q-2 -2 -2 -4q74 -29 111 -93t43 -169l26 -473h-381l-18 385q-4 57 -11 93t-23.5 54.5t-43 24.5t-65.5 6h-43 l-105 -563h-375z" />
<glyph unicode="&#x41b;" horiz-adv-x="1234" d="M-4 276q84 23 141.5 57t96 87t63.5 131t45 188l127 686h889l-262 -1425h-377l205 1110h-154l-76 -405q-31 -160 -73.5 -287t-114.5 -219.5t-180.5 -152.5t-268.5 -87z" />
<glyph unicode="&#x41c;" horiz-adv-x="1486" d="M59 0l263 1425h364l70 -335l69 -345h13l186 326l203 354h383l-262 -1425h-365l111 600h-9l-114 -211l-82 -160h-287l-24 164l-35 213h-6l-113 -606h-365z" />
<glyph unicode="&#x41d;" horiz-adv-x="1183" d="M59 0l263 1425h376l-98 -540h234l98 540h375l-263 -1425h-374l102 557h-233l-103 -557h-377z" />
<glyph unicode="&#x41e;" horiz-adv-x="1163" d="M138 352.5q-1 87.5 22 210.5q23 131 39 216t28.5 140.5t21.5 87t15 56.5q47 174 165 276.5t323 102.5q123 0 216 -37t150.5 -105.5t78 -165t-0.5 -212.5q-16 -90 -29.5 -181.5t-33.5 -179.5q-10 -45 -16.5 -74.5t-10.5 -51t-9 -41t-12 -44.5q-45 -174 -161.5 -268 t-339.5 -94q-154 0 -264.5 57t-151.5 152q-29 68 -30 155.5zM508 395q0 -43 29.5 -63.5t70.5 -20.5q55 0 84 38t43 104q25 117 42.5 220t37.5 214q6 37 11 71.5t8 69.5q-2 41 -28 64.5t-67 23.5t-70.5 -24.5t-43.5 -65.5q-10 -35 -21.5 -78t-17.5 -78q-16 -86 -30.5 -162.5 t-29.5 -170.5q-6 -37 -11 -72t-7 -70z" />
<glyph unicode="&#x41f;" horiz-adv-x="1193" d="M59 0l263 1425h993l-262 -1425h-373l203 1104h-244l-203 -1104h-377z" />
<glyph unicode="&#x420;" horiz-adv-x="1120" d="M59 0l263 1425h505q184 0 285.5 -85t101.5 -273q0 -125 -38.5 -225.5t-110.5 -170t-171 -107.5t-218 -38h-148q-23 -131 -48 -263t-48 -263h-373zM586 836h86q33 0 63.5 11t55 32.5t39 55.5t14.5 77q0 53 -29 78.5t-78 25.5h-100z" />
<glyph unicode="&#x421;" horiz-adv-x="1110" d="M135 371q0 39 4 77.5t13 79.5l61 334q12 59 26.5 117.5t32.5 116.5q25 76 65 140t98.5 109.5t136.5 71t180 25.5q111 0 191.5 -30t133.5 -82t80 -123.5t29 -155.5l-348 -88v14q0 78 -28 109.5t-69 31.5q-47 0 -73.5 -25.5t-42.5 -62.5q-8 -25 -15.5 -51.5t-11.5 -54.5 q-23 -123 -44.5 -241t-43.5 -241q-2 -10 -3 -19t-1 -20q0 -41 22.5 -67.5t75.5 -26.5q45 0 81 36t63 122l362 -84q-51 -186 -181 -290.5t-341 -104.5q-45 0 -76 8q-180 16 -278.5 115.5t-98.5 259.5z" />
<glyph unicode="&#x422;" horiz-adv-x="1015" d="M188 1106l60 319h962l-57 -319h-295l-203 -1106h-376l202 1106h-293z" />
<glyph unicode="&#x423;" horiz-adv-x="1114" d="M139 -29q12 82 22.5 161t22.5 161h60q31 0 71.5 10t65.5 41l25 31q-41 268 -85.5 525t-84.5 523h391l22 -288l15 -283h8q20 49 48 112.5t75 165.5q27 66 56.5 138.5t63.5 156.5h402l-516 -1071q-51 -106 -101.5 -179t-109 -118t-132 -65.5t-173.5 -20.5h-146z" />
<glyph unicode="&#x424;" horiz-adv-x="1515" d="M170 535q0 92 12.5 185t34.5 179q25 92 72 170t116.5 136.5t163 95t211.5 45.5l17 79h364q-4 -20 -8 -42.5t-8 -43.5q106 -10 181 -44.5t122 -87t69.5 -120t22.5 -145.5q0 -98 -16.5 -201.5t-44.5 -197.5q-27 -86 -74 -160t-116.5 -130t-161 -91t-205.5 -41 q-6 -31 -12.5 -60.5t-10.5 -60.5h-364l22 121q-100 12 -173 49t-121 91t-70.5 124t-22.5 150zM517 548.5q-1 -32.5 7 -59t28.5 -45t55.5 -24.5l117 622q-37 -4 -59.5 -16t-38.5 -33q-35 -45 -51.5 -116.5t-30.5 -143.5l-21 -115q-6 -37 -7 -69.5zM973 420q47 4 83 34.5 t54 94.5q23 76 43 180q8 37 11 62.5t7 54.5q6 39 8.5 72.5t-6 60.5t-28 43t-55.5 20z" />
<glyph unicode="&#x425;" horiz-adv-x="1208" d="M-16 0l512 735l-230 690h389l86 -364l9 4l215 360h428q-123 -174 -244 -345t-244 -345l248 -735h-391q-23 104 -48.5 206.5t-47.5 207.5l-7 2l-251 -416h-424z" />
<glyph unicode="&#x426;" horiz-adv-x="1306" d="M18 0l267 1425h377l-207 -1106h237l207 1106h373l-209 -1110h180l-121 -630h-315l61 315h-850z" />
<glyph unicode="&#x427;" horiz-adv-x="1118" d="M172 752q0 82 14 166l95 507h370l-84 -446q-2 -14 -3 -26.5t-1 -24.5q0 -94 88 -94q29 0 64 9t53 23l104 559h369l-264 -1425h-369l101 545h-2q-47 -18 -117 -31.5t-129 -13.5q-154 0 -221.5 66.5t-67.5 185.5z" />
<glyph unicode="&#x428;" horiz-adv-x="1683" d="M59 0l263 1425h376l-204 -1106h176l204 1106h379l-204 -1106h178l205 1106h372l-262 -1425h-1483z" />
<glyph unicode="&#x429;" horiz-adv-x="1781" d="M18 0l267 1425h377l-207 -1106h176l209 1106h377l-209 -1106h178l207 1106h374l-208 -1110h159l-119 -630h-317l61 315h-1325z" />
<glyph unicode="&#x42a;" horiz-adv-x="1376" d="M184 1110q14 78 27.5 158t30.5 157h694l-98 -536h141q104 0 178 -25.5t121 -72t68.5 -111t21.5 -143.5q0 -152 -49 -254.5t-134 -166t-196.5 -90t-236.5 -26.5h-453l205 1110h-320zM731 313h113q57 0 100 43t43 133q0 41 -24.5 67t-75.5 26h-107z" />
<glyph unicode="&#x42b;" horiz-adv-x="1677" d="M59 0l263 1425h374l-98 -536h141q104 0 178 -25.5t121 -72t68.5 -111t21.5 -143.5q0 -137 -43 -238.5t-115.5 -167t-170 -98.5t-207.5 -33h-533zM492 313h112q57 0 100.5 43t43.5 133q0 41 -25 67t-76 26h-106zM1139 0l262 1425h377l-262 -1425h-377z" />
<glyph unicode="&#x42c;" horiz-adv-x="1132" d="M59 0l263 1425h374l-98 -536h141q104 0 178 -25.5t121 -72t68.5 -111t21.5 -143.5q0 -137 -43 -238.5t-115.5 -167t-170 -98.5t-207.5 -33h-533zM492 313h112q57 0 100.5 43t43.5 133q0 41 -25 67t-76 26h-106z" />
<glyph unicode="&#x42d;" horiz-adv-x="1105" d="M102 387l344 80v-12q0 -80 31 -113t72 -33q66 0 91.5 40t35.5 93l24 140h-301l54 288h301l18 109q4 25 3 49.5t-9 45t-26.5 32.5t-49.5 12q-43 0 -79 -34.5t-68 -120.5l-320 98q27 80 68 149.5t100.5 120.5t141 81t190.5 30t188.5 -28t131 -77t76 -116.5t24.5 -147.5 q0 -37 -5 -74.5t-12 -78.5q-16 -98 -31.5 -195.5t-31.5 -196.5q-8 -43 -14.5 -84t-16.5 -79q-43 -186 -160.5 -281.5t-326.5 -95.5q-98 0 -181 27.5t-142.5 78.5t-91.5 126t-28 167z" />
<glyph unicode="&#x42e;" horiz-adv-x="1624" d="M59 0l263 1425h376l-102 -555h121q23 125 63 228q53 160 168 250t307 90q199 0 306.5 -105.5t107.5 -279.5q2 -47 -4 -98.5t-16 -104.5l-54 -293l-16 -82t-18 -80q-23 -96 -62 -170.5t-97.5 -128t-141 -81t-193.5 -27.5q-209 0 -315.5 102.5t-106.5 274.5q0 102 19 206 h-123l-105 -571h-377zM997 393q2 -41 28 -61.5t67 -20.5q53 0 81.5 36t40.5 102l82 442q6 35 11.5 70.5t7.5 70.5q0 41 -26.5 61.5t-65.5 20.5q-23 0 -47.5 -11t-36.5 -28q-23 -35 -35 -84t-23 -100l-75 -393q-4 -27 -7.5 -57.5t-1.5 -47.5z" />
<glyph unicode="&#x42f;" horiz-adv-x="1187" d="M23 0l159 432q27 68 70 122t127 81q-84 47 -111.5 135t-15.5 199q10 121 53 207t108.5 141t152.5 81.5t186 26.5h551l-254 -1425h-377l100 549h-53q-25 0 -46.5 -7t-42 -27.5t-40 -54.5t-43.5 -89l-135 -371h-389zM631 973q-6 -63 25.5 -92t78.5 -29h94l50 264h-101 q-59 0 -99 -32.5t-48 -110.5z" />
<glyph unicode="&#x430;" horiz-adv-x="1038" d="M86 223q0 68 7 143.5t20 141.5q20 100 50 195.5t78 169t117.5 117.5t167.5 44q18 0 45 -3t55.5 -14t54.5 -29.5t42 -49.5h8q4 20 7 39.5t7 38.5h355l-189 -1016h-364l12 68q-2 0 -4 2q-31 -29 -63.5 -45.5t-63.5 -24.5t-55.5 -11t-36.5 -3q-135 0 -192.5 64.5 t-57.5 172.5zM465 385q0 -33 8 -63.5t49 -30.5q18 0 31.5 8t24.5 20q23 25 43 90.5t32 139.5q6 29 8.5 55.5t2.5 52.5q0 33 -12.5 54.5t-47.5 21.5q-16 0 -28.5 -9t-22.5 -19q-39 -47 -68 -177q-8 -37 -14 -73.5t-6 -69.5z" />
<glyph unicode="&#x431;" horiz-adv-x="1015" d="M104 340q0 57 9.5 141t25.5 166q23 121 44.5 218.5t45.5 174.5q47 150 108.5 237t149.5 133t209 60.5t289 20.5l19 -277q-84 -12 -158 -19t-132.5 -24.5t-98.5 -53.5t-58 -107l-18 -78l8 -6q35 18 90 29.5t92 11.5q117 0 178.5 -48.5t87.5 -119.5q23 -57 23 -142 q0 -43 -5 -87t-14 -93q-10 -59 -23 -106t-36 -101q-57 -141 -166.5 -211.5t-267.5 -70.5q-109 0 -183.5 21.5t-120.5 61.5t-68.5 95t-27.5 123q0 12 -1 24.5t-1 26.5zM459 375q0 -39 14 -60q12 -27 51 -26q35 0 60 28q20 20 33.5 65.5t23.5 104.5q10 51 11 85t-3 59 q-10 43 -59 43q-53 0 -74.5 -44t-38.5 -122q-8 -41 -13 -74t-5 -59z" />
<glyph unicode="&#x432;" horiz-adv-x="1032" d="M105.5 252q-7.5 78 9.5 166l41 211q14 74 44.5 148.5t86 133t139.5 95t205 36.5q111 0 182.5 -25.5t114.5 -63.5t60.5 -85t17.5 -90q0 -23 -6.5 -51.5t-19.5 -59t-36.5 -58t-58.5 -46.5q0 -2 -1 -2t-1 -2q59 -27 88.5 -75t29.5 -107q0 -72 -28.5 -141.5t-90 -125 t-156.5 -89t-228 -33.5q-135 0 -218 34.5t-125 93t-49.5 136.5zM454 372.5q-3 -22.5 2 -43t19 -32.5t45 -12q47 0 75 30.5t28 63.5q0 51 -66 51h-33l39 205q39 -4 67.5 13.5t28.5 51.5q0 58 -59 58q-45 0 -65.5 -37t-30.5 -90l-43 -213q-4 -23 -7 -45.5z" />
<glyph unicode="&#x433;" horiz-adv-x="925" d="M74 266q0 102 46 172t114.5 116t149.5 74.5t151 49.5q76 23 75 59q0 20 -14 25.5t-31 5.5q-45 0 -107.5 -27.5t-109.5 -72.5l-176 198q90 92 189.5 135t228.5 43q76 0 142.5 -17t116.5 -52t79.5 -88t32.5 -127q0 -90 -39 -151.5t-97.5 -102.5t-128 -65.5t-129.5 -43.5 q-18 -6 -41.5 -12t-43 -17.5t-33 -25.5t-13.5 -35q0 -23 17.5 -29t35.5 -6q47 0 98.5 30t96.5 77l211 -201q-92 -104 -197.5 -148t-246.5 -44q-80 0 -149 18.5t-119 53t-79.5 88t-29.5 120.5z" />
<glyph unicode="&#x434;" horiz-adv-x="1050" d="M98 348q0 55 10.5 116.5t28 122t40 115t46.5 91.5q53 80 134 129t202 49q90 0 174 -39l12 6q6 43 7 78q0 82 -45 117.5t-148 35.5q-23 0 -51.5 -2t-54.5 -6l-35 273q70 16 131 22t113 6q125 0 207.5 -34.5t132 -93t70 -136.5t20.5 -164q0 -68 -8.5 -159t-25 -189 t-41 -197.5t-56.5 -183.5q-57 -147 -163 -233t-270 -86q-217 0 -323.5 98t-106.5 264zM459 373q0 -35 13 -56.5t42 -21.5t47.5 14.5t34.5 40.5q12 20 22.5 55t17.5 73t12 74t5 58q0 31 -14 55.5t-49 24.5q-16 0 -28.5 -8t-24.5 -18q-14 -14 -31 -55.5t-33 -112.5 q-10 -37 -12 -68t-2 -55z" />
<glyph unicode="&#x435;" horiz-adv-x="978" d="M100 326q0 41 4.5 85t10.5 83q14 100 46 198.5t89 176t146 124.5t220 47q98 0 169 -22.5t118 -60t69.5 -89t22.5 -106.5q0 -104 -41 -175t-110.5 -114t-160.5 -61.5t-191 -18.5q-10 0 -21.5 1t-24.5 1q-12 -68 8.5 -95.5t80.5 -27.5q33 0 71.5 19.5t75.5 66.5l242 -149 q-66 -121 -178.5 -174t-264.5 -53q-84 0 -153.5 22.5t-120.5 65.5t-79 107.5t-28 148.5zM483 618q92 0 132 20.5t40 59.5q0 23 -12 39.5t-43 16.5q-39 0 -71.5 -32t-45.5 -104z" />
<glyph unicode="&#x436;" horiz-adv-x="2017" d="M47 209q59 35 117.5 78t116.5 78q23 -45 50 -56.5t42 -11.5q16 0 34.5 8t34.5 29q14 18 27.5 56t25 83t17.5 91t6 81t-15.5 55.5t-43.5 20.5q-23 0 -49.5 -13.5t-55.5 -48.5q-53 39 -102 79t-102 79q63 119 154 172t206 53q78 0 138.5 -24.5t101.5 -69.5t61 -105.5 t20 -129.5l9 -4q47 74 92 151.5t88 155.5h283l-121 -557h6q45 94 75.5 155.5t53 102.5t39 67.5t33.5 51.5q29 43 63.5 79.5t78.5 65.5t97 45t121 16q137 0 210 -64.5t97 -174.5q-59 -35 -116.5 -76t-114.5 -76q-23 43 -44.5 55.5t-37.5 12.5q-31 0 -62 -31 q-16 -16 -31.5 -52t-27.5 -80t-20.5 -91t-8.5 -84q0 -35 13.5 -54.5t40.5 -19.5q16 0 46.5 14.5t59.5 51.5q55 -35 111.5 -71t111.5 -71q-57 -121 -158.5 -182t-228.5 -61q-143 0 -230 67.5t-95 227.5l-9 -7l-161 -276h-297l116 524q-4 0 -6 2q-29 -57 -51 -100t-39 -72 q-16 -29 -36.5 -62.5t-43.5 -68.5q-68 -106 -154.5 -169.5t-228.5 -63.5q-117 0 -197.5 60.5t-109.5 158.5z" />
<glyph unicode="&#x437;" horiz-adv-x="905" d="M33 213l262 147q25 -37 60.5 -58t70.5 -21t59.5 22.5t24.5 56.5q0 29 -20.5 37.5t-51.5 8.5h-73l41 223h65q33 0 63.5 14t30.5 62q0 18 -15 32.5t-46 14.5q-72 0 -146 -68l-198 147q43 63 95 104.5t107.5 64t110.5 31.5t105 9q158 0 252 -66.5t94 -185.5 q0 -18 -4.5 -50.5t-22.5 -70.5t-55.5 -75t-100.5 -62q0 -2 -1 -2t-1 -2q63 -27 90 -81t27 -107q0 -158 -113.5 -254t-318.5 -96q-154 0 -251 60.5t-140 164.5z" />
<glyph unicode="&#x438;" horiz-adv-x="1050" d="M84 170q-2 59 10 133l133 715h363l-111 -590q-8 -49 3.5 -77.5t54.5 -28.5q23 0 41 13t31.5 32.5t22.5 43t13 44.5l105 563h362l-188 -1018h-359l27 123l-6 2q-35 -45 -74 -73.5t-76 -44t-69.5 -20.5t-53.5 -5q-80 0 -129 22.5t-73.5 64.5t-26.5 101z" />
<glyph unicode="&#x439;" horiz-adv-x="1050" d="M84 170q-2 59 10 133l133 715h363l-111 -590q-8 -49 3.5 -77.5t54.5 -28.5q23 0 41 13t31.5 32.5t22.5 43t13 44.5l105 563h362l-188 -1018h-359l27 123l-6 2q-35 -45 -74 -73.5t-76 -44t-69.5 -20.5t-53.5 -5q-80 0 -129 22.5t-73.5 64.5t-26.5 101zM403 1458h220 q-8 -59 16.5 -104t85.5 -45q66 0 106.5 47t55.5 102h227q-10 -55 -38.5 -118.5t-78 -117t-122 -89t-166.5 -35.5q-98 0 -161 35.5t-97.5 90t-45 117t-2.5 117.5z" />
<glyph unicode="&#x43a;" horiz-adv-x="1056" d="M43 0l188 1014h359l-66 -357h15q20 0 38.5 3.5t36 15.5t35 37.5t35.5 70.5l98 232h367l-125 -295q-33 -78 -84 -125.5t-106 -63.5q63 -25 89.5 -75.5t30.5 -126.5l21 -330h-357l-8 244q-2 57 -26.5 92t-81.5 35h-31l-68 -371h-360z" />
<glyph unicode="&#x43b;" horiz-adv-x="1040" d="M-14 233q59 14 100 34t70.5 56.5t50 99t37.5 163.5l80 430h778l-189 -1016h-356l137 739h-96l-31 -168q-27 -147 -66.5 -256.5t-102 -183.5t-154.5 -112.5t-224 -45.5z" />
<glyph unicode="&#x43c;" horiz-adv-x="1220" d="M45 0l186 1018h306l65 -236l55 -215h11l133 217l151 234h330l-186 -1018h-348l67 367h-6l-109 -183h-194l-47 185h-4l-68 -369h-342z" />
<glyph unicode="&#x43d;" horiz-adv-x="1056" d="M45 0l186 1018h359l-68 -367h172l68 367h356l-186 -1018h-357l70 383h-172l-70 -383h-358z" />
<glyph unicode="&#x43e;" horiz-adv-x="1019" d="M102 342q0 41 5.5 84t11.5 84q18 104 51 195.5t88 160.5q57 76 145.5 126t229.5 50q104 0 178 -26.5t122 -73.5t69.5 -114.5t21.5 -147.5q0 -53 -7 -113.5t-21.5 -121t-33 -115t-40.5 -92.5q-35 -72 -79 -121t-96.5 -78t-114 -41t-128.5 -12q-215 0 -308.5 96t-93.5 260z M461 375q0 -29 9 -56.5t44 -27.5q31 0 51.5 17.5t35.5 46t24.5 65.5t17.5 76q10 47 15.5 89t5.5 77q0 33 -11.5 54t-48.5 21q-31 0 -55 -28q-39 -47 -70 -191q-18 -86 -18 -143z" />
<glyph unicode="&#x43f;" horiz-adv-x="1050" d="M45 0l186 1018h359l-23 -119l8 -2q35 41 73 68.5t73 44t65.5 23.5t53.5 7q78 0 128 -22.5t74.5 -64.5t28.5 -101t-10 -133l-131 -719h-363l107 592q10 49 -2.5 77.5t-55.5 28.5q-25 0 -42 -13t-29.5 -33.5t-20.5 -45t-12 -45.5l-104 -561h-363z" />
<glyph unicode="&#x440;" horiz-adv-x="1038" d="M-29 -406l260 1422h355l-15 -84h9q27 31 59.5 49t64 29.5t59.5 15.5t46 4q129 0 189.5 -66.5t60.5 -185.5q0 -61 -8.5 -144t-24.5 -168t-39.5 -163t-52.5 -131q-43 -80 -118 -136t-195 -56q-41 0 -100.5 13t-98.5 56q-2 0 -4 -2l-84 -453h-363zM481 362q0 -31 11.5 -52 t46.5 -21q27 0 48 20.5t36.5 53t25.5 75.5t17 86q6 35 10 66t4 63q0 29 -12.5 49.5t-42.5 20.5q-49 0 -76 -54.5t-45 -140.5q-23 -113 -23 -166z" />
<glyph unicode="&#x441;" horiz-adv-x="935" d="M102 317q0 82 13 179q16 111 47 201.5t71 150.5q63 92 154.5 142t228.5 50q147 0 243.5 -68.5t113.5 -193.5l-271 -137q-16 53 -39.5 72.5t-48.5 19.5q-57 0 -81.5 -43t-40.5 -106q-12 -47 -20.5 -97.5t-10.5 -95.5q-2 -41 13 -68.5t65 -27.5q27 0 61.5 20.5t69.5 73.5 q59 -35 125.5 -71.5t126.5 -71.5q-63 -135 -177 -196.5t-262 -61.5q-201 0 -291 89t-90 240z" />
<glyph unicode="&#x442;" horiz-adv-x="1536" d="M45 0l186 1018h359l-23 -115l8 -2q72 78 147 108.5t120 30.5q84 0 136 -35.5t66 -101.5q45 47 88.5 75t80 41t66.5 17t48 4q80 0 129 -24.5t72.5 -68.5t25.5 -105.5t-12 -134.5l-129 -707h-362l108 588q10 49 2 77.5t-51 28.5t-64.5 -38t-29.5 -76l-107 -580h-360 l106 588q10 49 2 77.5t-49 28.5q-23 0 -39 -12t-28.5 -30.5t-19.5 -42t-11 -46.5l-104 -563h-361z" />
<glyph unicode="&#x443;" horiz-adv-x="1038" d="M-41 -143q115 12 186.5 48t128.5 111l-129 1002h375l12 -283q2 -37 2.5 -87t-2 -103t-5.5 -103.5t-7 -85.5h10q29 57 60 133t60.5 162t58 179.5t57.5 187.5h381q-55 -152 -113.5 -302.5t-122 -293.5t-134 -273.5t-150.5 -240.5q-49 -68 -111.5 -132.5t-142.5 -114.5 t-178.5 -80t-217.5 -30z" />
<glyph unicode="&#x444;" horiz-adv-x="1368" d="M102 383q4 43 9.5 87t15.5 85q20 100 61 183t103.5 144.5t151.5 98.5t210 45l80 438h357q-23 -111 -41.5 -219t-40.5 -219q106 -10 175.5 -44t109.5 -86t56.5 -118.5t16.5 -138.5q0 -113 -25.5 -216.5t-66.5 -176.5q-29 -47 -69 -92t-95 -82t-127 -59.5t-164 -22.5 l-71 -379h-357l70 379q-113 10 -184.5 47t-112.5 91t-54.5 120.5t-7.5 134.5zM441.5 430q-3.5 -37 0.5 -68q4 -23 18.5 -46t55.5 -33l84 454q-33 -4 -53.5 -19.5t-36.5 -37.5q-18 -27 -32.5 -70t-24.5 -102q-8 -41 -11.5 -78zM870 283q29 2 48.5 15t29.5 28q14 16 25.5 43.5 t19.5 58.5t15.5 62.5t11.5 56.5q4 27 6 46t2 32q0 49 -12 76.5t-62 35.5z" />
<glyph unicode="&#x445;" horiz-adv-x="1042" d="M-14 0l379 518l-179 502h373l51 -252h4l146 252h407q-94 -127 -187 -251t-185 -251l196 -518h-373l-61 274h-4l-158 -274h-409z" />
<glyph unicode="&#x446;" horiz-adv-x="1132" d="M84 170q-2 59 10 133l133 715h363l-111 -590q-8 -49 3.5 -77.5t54.5 -28.5q23 0 41 13t31.5 32.5t22.5 43t13 44.5l105 563h362l-127 -682q-16 -84 6.5 -123t79.5 -63l-100 -437h-295l49 275q-53 10 -91 50t-42 87h-6q-66 -88 -139.5 -115.5t-133.5 -27.5 q-80 0 -129 22.5t-73.5 64.5t-26.5 101z" />
<glyph unicode="&#x447;" horiz-adv-x="995" d="M127 647q18 92 34.5 184.5t35.5 184.5h362q-16 -78 -29.5 -153t-27.5 -152q-8 -35 3 -67t54 -32q16 0 35.5 5.5t32.5 9.5l71 389h359l-189 -1016h-356l66 352q-51 -16 -103.5 -25.5t-103.5 -9.5q-156 0 -214.5 90.5t-29.5 239.5z" />
<glyph unicode="&#x448;" horiz-adv-x="1533" d="M85 165.5q-3 59.5 9 133.5l133 719h363l-109 -588q-10 -51 -2 -78.5t51 -27.5t64.5 37.5t30.5 76.5l106 580h361l-107 -588q-10 -51 -2 -78.5t49 -27.5q45 0 66.5 42t31.5 87l105 565h360l-186 -1018h-358l22 113l-8 2q-31 -39 -69 -64.5t-73.5 -42t-68.5 -24t-55 -7.5 q-84 0 -136.5 35t-66.5 101q-45 -47 -87 -74t-78 -41t-64.5 -17.5t-47.5 -3.5q-80 0 -130 23t-75.5 64.5t-28.5 101z" />
<glyph unicode="&#x449;" horiz-adv-x="1615" d="M84 169q-2 58 10 130l133 719h363l-109 -588q-10 -51 -2 -78.5t51 -27.5t64.5 37.5t30.5 76.5l106 580h361l-107 -588q-10 -51 -2 -78.5t49 -27.5q45 0 66.5 42t31.5 87l105 565h360l-127 -682q-16 -84 1.5 -123t76.5 -63l-96 -435h-299l49 273q-51 16 -86 53t-39 84h-6 q-68 -90 -139.5 -119t-130.5 -29q-84 0 -136.5 35t-66.5 101q-45 -47 -88 -74t-80 -41t-66.5 -17.5t-48.5 -3.5q-80 0 -129 24t-73.5 67t-26.5 101z" />
<glyph unicode="&#x44a;" horiz-adv-x="1193" d="M98 739l52 277h618l-61 -326h129q102 0 168.5 -28.5t104.5 -71.5t53.5 -95.5t15.5 -101.5q0 -72 -28 -144.5t-86 -131t-150.5 -95t-221.5 -36.5q-203 0 -301 89t-98 244q0 59 12 132q14 72 27.5 144.5t25.5 143.5h-260zM645 365q-8 -41 8.5 -66t63.5 -25q53 0 73.5 31 t20.5 53q0 25 -15.5 44.5t-68.5 19.5h-72z" />
<glyph unicode="&#x44b;" horiz-adv-x="1490" d="M90 319q0 60 12 132q29 141 53.5 282t53.5 283h356l-61 -326h129q102 0 168.5 -28.5t104.5 -71.5t53.5 -95.5t15.5 -101.5q0 -72 -27.5 -144.5t-86 -131t-151 -95t-221.5 -36.5q-203 0 -301 89t-98 244zM442 365q-8 -41 8.5 -66t63.5 -25q53 0 73.5 31t20.5 53 q0 25 -15 44.5t-69 19.5h-71zM1004 0l188 1016h360l-188 -1016h-360z" />
<glyph unicode="&#x44c;" horiz-adv-x="989" d="M90 319q0 60 12 132q29 141 53.5 282t53.5 283h356l-61 -326h129q102 0 168.5 -28.5t104.5 -71.5t53.5 -95.5t15.5 -101.5q0 -72 -27.5 -144.5t-86 -131t-151 -95t-221.5 -36.5q-203 0 -301 89t-98 244zM442 365q-8 -41 8.5 -66t63.5 -25q53 0 73.5 31t20.5 53 q0 25 -15 44.5t-69 19.5h-71z" />
<glyph unicode="&#x44d;" horiz-adv-x="917" d="M37 211l256 149q18 -41 50 -58t54 -17q59 0 84 35.5t35 82.5h-190l43 222l186 -2q6 35 3 57t-14.5 34.5t-26.5 17.5t-30 5q-23 0 -54.5 -13t-59.5 -54l-234 137q61 123 164 178t232 55q100 0 172.5 -30.5t118.5 -83t67.5 -123t21.5 -148.5q0 -123 -28.5 -245.5 t-75.5 -202.5q-55 -92 -150.5 -155.5t-252.5 -63.5q-137 0 -234.5 53t-136.5 170z" />
<glyph unicode="&#x44e;" horiz-adv-x="1423" d="M43 0l188 1016h359l-70 -379h78q25 88 63.5 169t108.5 138q55 47 130 72.5t173 25.5q96 0 165 -24.5t112 -68.5t62.5 -107.5t19.5 -139.5q0 -53 -6.5 -112.5t-16.5 -118.5t-25.5 -113.5t-35.5 -97.5q-70 -154 -176.5 -214t-247.5 -60q-193 0 -282 91t-89 249q0 16 1 32.5 t3 32.5h-82l-72 -391h-360zM895 367q0 -29 12.5 -52.5t46.5 -23.5q20 0 37 10t27 25q14 18 28.5 60t24.5 92t16.5 99.5t6.5 84.5q-1 75 -60 75q-18 0 -30.5 -8t-22.5 -20q-20 -20 -38.5 -71.5t-31.5 -117.5q-10 -45 -13 -85t-3 -68z" />
<glyph unicode="&#x44f;" horiz-adv-x="1013" d="M14 0l101 272q16 43 47 91.5t100 68.5q-59 31 -83.5 94.5t-24.5 126.5q0 86 29.5 153.5t84 115t128 72t161.5 24.5h518l-186 -1018h-359l68 365h-27q-31 0 -63.5 -27t-65.5 -111l-82 -227h-346zM506 670q0 -25 16.5 -40.5t48.5 -15.5h72l27 136h-80q-29 0 -56.5 -18.5 t-27.5 -61.5z" />
<glyph unicode="&#x451;" horiz-adv-x="978" d="M100 326q0 41 4.5 85t10.5 83q14 100 46 198.5t89 176t146 124.5t220 47q98 0 169 -22.5t118 -60t69.5 -89t22.5 -106.5q0 -104 -41 -175t-110.5 -114t-160.5 -61.5t-191 -18.5q-10 0 -21.5 1t-24.5 1q-12 -68 8.5 -95.5t80.5 -27.5q33 0 71.5 19.5t75.5 66.5l242 -149 q-66 -121 -178.5 -174t-264.5 -53q-84 0 -153.5 22.5t-120.5 65.5t-79 107.5t-28 148.5zM317 1151l52 272h290l-49 -272h-293zM483 618q92 0 132 20.5t40 59.5q0 23 -12 39.5t-43 16.5q-39 0 -71.5 -32t-45.5 -104zM748 1151l49 272h295l-52 -272h-292z" />
<glyph unicode="&#x452;" horiz-adv-x="1067" d="M82 0l205 1116h-88l39 217h90l30 166h359l-33 -166h307l-39 -217h-309l-43 -225l6 -2q63 57 132 80.5t114 23.5q104 0 169.5 -75.5t65.5 -247.5q0 -31 -2 -66t-8 -74q-16 -123 -42.5 -230t-76 -188t-128 -127t-203.5 -46q-23 0 -48.5 2t-54.5 6l54 291q29 6 48 14 t33.5 31.5t25.5 67.5t24 122q4 25 6 46.5t2 37.5q0 57 -19.5 77.5t-54.5 20.5q-25 0 -43 -16t-30.5 -38.5t-20.5 -49.5t-12 -47l-93 -504h-362z" />
<glyph unicode="&#x453;" horiz-adv-x="925" d="M74 266q0 102 46 172t114.5 116t149.5 74.5t151 49.5q76 23 75 59q0 20 -14 25.5t-31 5.5q-45 0 -107.5 -27.5t-109.5 -72.5l-176 198q90 92 189.5 135t228.5 43q76 0 142.5 -17t116.5 -52t79.5 -88t32.5 -127q0 -90 -39 -151.5t-97.5 -102.5t-128 -65.5t-129.5 -43.5 q-18 -6 -41.5 -12t-43 -17.5t-33 -25.5t-13.5 -35q0 -23 17.5 -29t35.5 -6q47 0 98.5 30t96.5 77l211 -201q-92 -104 -197.5 -148t-246.5 -44q-80 0 -149 18.5t-119 53t-79.5 88t-29.5 120.5zM467 1190l274 442l244 -125l-346 -415z" />
<glyph unicode="&#x454;" horiz-adv-x="923" d="M102 317q0 82 13 179q16 111 47 201.5t71 150.5q63 92 154.5 142t228.5 50q141 0 235.5 -62.5t117.5 -176.5l-279 -127q-16 35 -35.5 47t-40.5 12q-47 0 -70.5 -29.5t-39.5 -76.5h186l-41 -219h-188v-17q-2 -41 13 -68.5t65 -27.5q23 0 51 14.5t59 52.5l264 -135 q-66 -127 -177 -183t-253 -56q-201 0 -291 89t-90 240z" />
<glyph unicode="&#x455;" horiz-adv-x="937" d="M51 238l256 135q35 -66 71 -86.5t89 -20.5q31 0 57.5 16.5t26.5 45.5q0 23 -23.5 35t-60.5 22q-47 14 -98.5 33.5t-93.5 52.5t-69.5 83t-27.5 126q0 88 37 155.5t95.5 113.5t132 69.5t147.5 23.5q135 0 234.5 -53t144.5 -158l-234 -159q-31 57 -71.5 72.5t-73.5 15.5 q-41 0 -57.5 -19.5t-16.5 -29.5q0 -29 23.5 -42.5t74.5 -27.5q45 -12 95.5 -32.5t93.5 -53.5t70.5 -82t27.5 -119q0 -84 -29.5 -153.5t-88 -118.5t-143.5 -73.5t-198 -20.5q-162 6 -253 69.5t-138 180.5z" />
<glyph unicode="&#x456;" horiz-adv-x="581" d="M70 0l188 1018h360l-188 -1018h-360zM285 1165l53 291h360l-53 -291h-360z" />
<glyph unicode="&#x457;" horiz-adv-x="581" d="M70 0l188 1018h360l-188 -1018h-360zM109 1137l51 272h291l-50 -272h-292zM539 1137l49 272h295l-52 -272h-292z" />
<glyph unicode="&#x458;" horiz-adv-x="589" d="M-154 -420l60 316h53q63 0 88 32.5t35 94.5l184 995h361l-205 -1104q-35 -170 -137.5 -254t-292.5 -84h-25.5h-46t-46 1t-28.5 3zM293 1165l55 291h361l-54 -291h-362z" />
<glyph unicode="&#x459;" horiz-adv-x="1536" d="M-4 233q57 14 98 34t70 55.5t49 94t37 154.5l86 445h774l-61 -326h129q102 0 168.5 -28.5t104.5 -71.5t53.5 -95.5t15.5 -101.5q0 -72 -28 -144.5t-86 -131t-150.5 -95t-221.5 -36.5q-203 0 -301 89t-98 244q0 60 12 132q14 72 27.5 144.5t25.5 143.5h-90l-39 -192 q-29 -141 -67.5 -245.5t-100 -175.5t-151.5 -108.5t-221 -44.5q-10 66 -18.5 130.5t-16.5 129.5zM987 365q-8 -41 8.5 -66t63.5 -25q53 0 73.5 31t20.5 53q0 25 -15.5 44.5t-68.5 19.5h-72z" />
<glyph unicode="&#x45a;" horiz-adv-x="1495" d="M43 0l188 1016h359l-62 -328h123q16 82 30.5 163t31.5 165h356l-61 -326h129q102 0 168.5 -28.5t104.5 -71.5t53.5 -95.5t15.5 -101.5q0 -72 -28 -144.5t-86 -131t-150.5 -95t-221.5 -36.5q-203 0 -301 89t-98 244q0 47 6 101h-121l-78 -420h-358zM946 365 q-8 -41 8.5 -66t63.5 -25q53 0 73.5 31t20.5 53q0 25 -15.5 44.5t-68.5 19.5h-72z" />
<glyph unicode="&#x45b;" horiz-adv-x="1062" d="M55 0l203 1106h-76l39 221h78l33 172h358l-33 -172h316l-39 -221h-318l-41 -215l7 -2q74 59 145.5 81.5t114.5 22.5q78 0 128 -22.5t74.5 -64.5t28.5 -101.5t-10 -132.5l-123 -672h-362l100 549q10 49 -1 77.5t-56 28.5q-23 0 -40.5 -12t-30.5 -30.5t-21.5 -40 t-12.5 -42.5l-98 -530h-363z" />
<glyph unicode="&#x45c;" horiz-adv-x="1056" d="M43 0l188 1014h359l-66 -357h15q20 0 38.5 3.5t36 15.5t35 37.5t35.5 70.5l98 232h367l-125 -295q-33 -78 -84 -125.5t-106 -63.5q63 -25 89.5 -75.5t30.5 -126.5l21 -330h-357l-8 244q-2 57 -26.5 92t-81.5 35h-31l-68 -371h-360zM541 1190l274 442l244 -125l-346 -415z " />
<glyph unicode="&#x45e;" horiz-adv-x="1038" d="M-41 -143q115 12 186.5 48t128.5 111l-129 1002h375l12 -283q2 -37 2.5 -87t-2 -103t-5.5 -103.5t-7 -85.5h10q29 57 60 133t60.5 162t58 179.5t57.5 187.5h381q-55 -152 -113.5 -302.5t-122 -293.5t-134 -273.5t-150.5 -240.5q-49 -68 -111.5 -132.5t-142.5 -114.5 t-178.5 -80t-217.5 -30zM381 1458h219q-8 -59 16.5 -104t85.5 -45q66 0 107 47t55 102h228q-10 -55 -39 -118.5t-78 -117t-122 -89t-167 -35.5q-98 0 -160.5 35.5t-97.5 90t-45 117t-2 117.5z" />
<glyph unicode="&#x45f;" horiz-adv-x="1050" d="M84 170q-2 59 10 133l133 715h363l-111 -590q-8 -49 3.5 -77.5t54.5 -28.5q23 0 41 13t31.5 32.5t22.5 43t13 44.5l105 563h362l-188 -1018h-359l27 123l-6 2q-35 -45 -74 -73.5t-76 -44t-69.5 -20.5t-53.5 -5q-80 0 -129 22.5t-73.5 64.5t-26.5 101zM256 -457l84 363 l287 24l-95 -387h-276z" />
<glyph unicode="&#x490;" horiz-adv-x="1030" d="M57 0l267 1425h591l46 256h290l-102 -575h-508l-205 -1106h-379z" />
<glyph unicode="&#x491;" horiz-adv-x="890" d="M45 0l182 1018h486l45 237h280l-94 -518h-403l-133 -737h-363z" />
<glyph unicode="&#x4d9;" horiz-adv-x="991" d="M96 260q0 104 41 175t110.5 114t161 61.5t191.5 18.5q10 0 21.5 -1t23.5 -1q12 68 -8.5 95.5t-79.5 27.5q-33 0 -72 -19.5t-75 -66.5l-242 149q72 111 175 171t255 60q84 0 155.5 -22.5t125 -66.5t83 -109.5t29.5 -149.5q0 -119 -23.5 -245.5t-82 -231t-157.5 -171 t-253 -66.5q-98 0 -168.5 22.5t-118 60t-70 89t-22.5 106.5zM436 324q0 -23 12.5 -39.5t43.5 -16.5q39 0 71.5 32t44.5 103q-92 0 -132 -20.5t-40 -58.5z" />
<glyph unicode="&#x2000;" horiz-adv-x="977" />
<glyph unicode="&#x2001;" horiz-adv-x="1954" />
<glyph unicode="&#x2002;" horiz-adv-x="977" />
<glyph unicode="&#x2003;" horiz-adv-x="1954" />
<glyph unicode="&#x2004;" horiz-adv-x="651" />
<glyph unicode="&#x2005;" horiz-adv-x="488" />
<glyph unicode="&#x2006;" horiz-adv-x="325" />
<glyph unicode="&#x2007;" horiz-adv-x="325" />
<glyph unicode="&#x2008;" horiz-adv-x="244" />
<glyph unicode="&#x2009;" horiz-adv-x="390" />
<glyph unicode="&#x200a;" horiz-adv-x="108" />
<glyph unicode="&#x2010;" horiz-adv-x="878" d="M133 389l55 301h691l-56 -301h-690z" />
<glyph unicode="&#x2011;" horiz-adv-x="878" d="M133 389l55 301h691l-56 -301h-690z" />
<glyph unicode="&#x2012;" horiz-adv-x="878" d="M133 389l55 301h691l-56 -301h-690z" />
<glyph unicode="&#x2013;" horiz-adv-x="999" d="M78 430l49 268h924l-50 -268h-923z" />
<glyph unicode="&#x2014;" horiz-adv-x="1996" d="M78 430l49 268h1919l-49 -268h-1919z" />
<glyph unicode="&#x2018;" horiz-adv-x="571" d="M207 819l59 328l219 348h217l-129 -328h70l-65 -348h-371z" />
<glyph unicode="&#x2019;" horiz-adv-x="571" d="M213 819l127 328h-70l66 348h373l-62 -328l-217 -348h-217z" />
<glyph unicode="&#x201a;" horiz-adv-x="616" d="M20 -334l132 330h-72l63 356h381l-63 -336l-219 -350h-222z" />
<glyph unicode="&#x201c;" horiz-adv-x="1007" d="M207 819l59 328l219 348h217l-129 -328h70l-65 -348h-371zM647 819l60 328l219 348h217l-129 -328h69l-65 -348h-371z" />
<glyph unicode="&#x201d;" horiz-adv-x="1007" d="M213 819l127 328h-68l66 348h371l-62 -328l-217 -348h-217zM653 819l129 328h-69l65 348h371l-62 -328l-217 -348h-217z" />
<glyph unicode="&#x201e;" horiz-adv-x="1089" d="M20 -334l132 330h-72l63 356h381l-63 -336l-219 -350h-222zM494 -334l131 330h-72l65 356h381l-63 -336l-219 -350h-223z" />
<glyph unicode="&#x2020;" horiz-adv-x="1009" d="M131 692l57 303h287l74 410h350l-76 -410h285l-57 -303h-285l-186 -1018h-351l189 1018h-287z" />
<glyph unicode="&#x2021;" horiz-adv-x="1009" d="M41 201l55 303h287l37 198h-287l57 306h285l74 397h350l-74 -397h283l-55 -306h-285l-37 -198h285l-58 -303h-282l-96 -527h-351l97 527h-285z" />
<glyph unicode="&#x2022;" horiz-adv-x="1009" d="M180 565q0 70 26.5 132.5t72 108.5t105.5 72.5t130 26.5t131.5 -26.5t106.5 -72.5t71.5 -108.5t26.5 -132.5q0 -72 -26.5 -133t-71.5 -106t-106.5 -72t-131.5 -27t-130 26t-105.5 72t-72 107.5t-26.5 132.5z" />
<glyph unicode="&#x2026;" horiz-adv-x="1798" d="M33 0l63 352h379l-63 -352h-379zM631 0l63 352h379l-63 -352h-379zM1225 0l63 352h379l-63 -352h-379z" />
<glyph unicode="&#x202f;" horiz-adv-x="390" />
<glyph unicode="&#x2030;" horiz-adv-x="2400" d="M223 856l64 350q23 117 100.5 189.5t220.5 72.5q68 0 123 -22.5t92 -61t52.5 -92t3.5 -116.5l-64 -353q-10 -57 -32.5 -105t-60.5 -83t-93.5 -54.5t-128.5 -19.5q-68 0 -124.5 21.5t-94 59.5t-54 92t-4.5 122zM324 -35l1015 1495h263l-1016 -1495h-262zM475 819 q-6 -43 33 -43q33 0 43 43l72 389q8 45 -29 45q-39 0 -45 -45zM1069 283l64 350q23 117 100.5 189.5t220.5 72.5q68 0 123 -22.5t92 -61.5t52.5 -92t2.5 -117l-63 -352q-10 -57 -32.5 -105.5t-60.5 -83t-93.5 -54t-128.5 -19.5q-68 0 -124.5 21.5t-94 59t-54 92t-4.5 122.5z M1321 246q-6 -43 33 -43q33 0 43 43l71 389q8 45 -28 45q-39 0 -45 -45zM1726 283l64 350q23 117 100.5 189.5t220.5 72.5q68 0 123.5 -22.5t92 -61.5t52 -92t3.5 -117l-64 -352q-10 -57 -32.5 -105.5t-60.5 -83t-93 -54t-129 -19.5q-68 0 -124 21.5t-94 59t-54.5 92 t-4.5 122.5zM1978 246q-6 -43 33 -43q33 0 43 43l72 389q8 45 -29 45q-39 0 -45 -45z" />
<glyph unicode="&#x2039;" horiz-adv-x="808" d="M141 481l340 424h350l-337 -424l180 -424h-350z" />
<glyph unicode="&#x203a;" horiz-adv-x="808" d="M66 57l335 424l-178 424h348l183 -424l-340 -424h-348z" />
<glyph unicode="&#x2044;" horiz-adv-x="399" d="M-340 -35l1016 1495h262l-1016 -1495h-262z" />
<glyph unicode="&#x205f;" horiz-adv-x="488" />
<glyph unicode="&#x20ac;" d="M121 524l29 156h75l13 65h-76l28 158h76q8 39 18.5 77t20.5 75q27 82 70 151.5t103.5 119.5t139 78t177.5 28q186 0 282.5 -90.5t102.5 -233.5q-82 -31 -162 -60.5t-162 -58.5q-4 59 -29.5 87t-60.5 28q-41 0 -65.5 -17.5t-41 -46t-26.5 -64.5t-19 -73h213l-30 -158h-211 l-13 -65h211l-28 -156h-211q-6 -31 -11.5 -59.5t-5.5 -56.5q0 -39 14.5 -70t67.5 -31q41 0 80 31t68 104l284 -114q-66 -154 -181.5 -247t-299.5 -93q-193 0 -291 84t-98 241q0 53 7 104.5t18 106.5h-76z" />
<glyph unicode="&#x2122;" horiz-adv-x="1701" d="M154 1214l18 211h649l-18 -211h-207q-14 -160 -27.5 -319.5t-29.5 -319.5h-236q14 160 27.5 320t29.5 319h-206zM805 575l76 848h219l151 -366q45 94 100.5 184t102.5 182h223l-73 -848h-234l33 340h-2q-27 -53 -53.5 -106t-55.5 -107h-149q-18 53 -35.5 106.5 t-34.5 106.5h-2l-35 -340h-231z" />
<glyph unicode="&#x2202;" horiz-adv-x="1091" d="M102 362q0 137 45.5 247t119 186.5t168.5 116.5t198 40q39 0 80 -5t75 -15q2 10 3.5 20.5t1.5 20.5q0 57 -21.5 98t-57.5 66.5t-83 38t-101 12.5q-59 0 -129 -17l29 285q66 16 130.5 20.5t111.5 4.5q129 0 216 -41t141 -114t77.5 -172t23.5 -216q0 -238 -53 -417 t-143 -300t-207 -181t-246 -60q-178 0 -278.5 96t-100.5 286zM457 391q0 -59 22 -80.5t53 -21.5q45 0 81 30.5t61.5 80t43 110.5t27.5 121q-53 39 -112 39q-31 0 -61.5 -17.5t-56.5 -51.5t-42 -87t-16 -123z" />
<glyph unicode="&#x220f;" horiz-adv-x="1193" d="M29 -160l293 1585h993l-293 -1585h-373l234 1264h-244l-233 -1264h-377z" />
<glyph unicode="&#x2211;" horiz-adv-x="1017" d="M-10 -160l57 303l334 504l-156 481l54 297h878l-55 -313h-465l147 -465l-321 -487h481l-59 -320h-895z" />
<glyph unicode="&#x221a;" horiz-adv-x="1216" d="M145 770l473 154l52 -408l422 1098h331l-698 -1770h-287l-96 707l-164 -55z" />
<glyph unicode="&#x221e;" horiz-adv-x="1536" d="M90 573q0 74 25.5 140.5t74 117t115 80t148.5 29.5q88 0 173 -46t144 -103q59 72 134 110.5t188 38.5q76 0 141 -27.5t113.5 -76t75 -116t26.5 -147.5q0 -74 -26.5 -141t-75 -117.5t-117 -81t-152.5 -30.5q-96 0 -172 48t-135 111q-61 -70 -135 -114.5t-189 -44.5 q-76 0 -141 27.5t-112.5 76.5t-75 117t-27.5 149zM379 573q0 -47 22.5 -79.5t55.5 -32.5q39 0 74.5 30.5t70.5 77.5q-33 45 -68.5 78t-72.5 33q-35 0 -58.5 -31t-23.5 -76zM936 573q39 -47 76 -79.5t69 -32.5q31 0 54.5 32.5t23.5 79.5t-22.5 77t-53.5 30t-69.5 -29.5 t-77.5 -77.5z" />
<glyph unicode="&#x222b;" horiz-adv-x="731" d="M-125 -258l57 225q43 -6 76 -6t60.5 9.5t49 34t40 67.5t37.5 110q20 86 57 272.5t92 473.5q20 106 49 222t78 210t128 155.5t202 61.5q37 0 90 -5t100 -28l-53 -229q-23 2 -42 3t-38 1q-37 0 -65.5 -8t-52 -32t-41 -67t-29.5 -112q-8 -41 -21.5 -109.5t-30 -147.5 t-33 -162t-30.5 -151.5t-23.5 -116.5t-11.5 -59q-25 -150 -59.5 -268.5t-86.5 -201.5t-127 -128t-179 -45q-86 0 -193 31z" />
<glyph unicode="&#x2248;" d="M98 330q84 129 167.5 197.5t187.5 68.5q45 0 85 -18.5t73.5 -40t63.5 -39t58 -17.5q41 0 85 28t97 89l140 -100q-86 -137 -167 -202t-163 -65q-47 0 -87 17.5t-76 38t-68.5 38t-63.5 17.5q-39 0 -86 -22.5t-108 -94.5zM174 731q82 129 165 197.5t187 68.5q45 0 85 -18 t74 -39.5t64.5 -39t59.5 -17.5q39 0 83 27.5t97 88.5l139 -100q-86 -139 -166.5 -202.5t-162.5 -63.5q-47 0 -87 17.5t-76 38t-68.5 37.5t-63.5 17q-39 0 -85 -22.5t-108 -93.5z" />
<glyph unicode="&#x2260;" d="M55 43l181 244h-144l49 262h291l98 135h-364l49 260h510l182 242h246l-178 -242h155l-49 -260h-303l-100 -135h379l-47 -262h-527l-180 -244h-248z" />
<glyph unicode="&#x2264;" d="M45 0l51 276h893l-51 -276h-893zM166 659l41 220l958 350l-55 -320l-453 -157q20 -10 78 -31t121.5 -44.5t120.5 -44t78 -28.5l-58 -289z" />
<glyph unicode="&#x2265;" d="M45 0l51 276h893l-51 -276h-893zM102 315l58 322q14 4 49 15.5t80 25.5t94 30.5t94 31t80 25.5t51 17l-393 158l55 289l832 -350l-41 -220z" />
<glyph unicode="&#x25ca;" d="M61 651l359 692h182l352 -692l-354 -688h-182zM324 653l190 -374l184 372l-188 377z" />
<glyph unicode="&#x25fc;" horiz-adv-x="1024" d="M0 0v1024h1024v-1024h-1024z" />
</font>
</defs>
</svg>
